<svg xmlns="http://www.w3.org/2000/svg" xmlns:xlink="http://www.w3.org/1999/xlink" version="1.0" x="0" y="0" width="2400" height="1140.1798226381484" viewBox="20.52654541015625 53.98891342163086 298.9469091796875 142.02218078613282" preserveAspectRatio="xMidYMid meet" color-interpolation-filters="sRGB"><g><defs><linearGradient id="92" x1="0%" y1="0%" x2="100%" y2="0%"><stop offset="0%" stop-color="#fa71cd"></stop> <stop offset="100%" stop-color="#9b59b6"></stop></linearGradient><linearGradient id="93" x1="0%" y1="0%" x2="100%" y2="0%"><stop offset="0%" stop-color="#f9d423"></stop> <stop offset="100%" stop-color="#f83600"></stop></linearGradient><linearGradient id="94" x1="0%" y1="0%" x2="100%" y2="0%"><stop offset="0%" stop-color="#0064d2"></stop> <stop offset="100%" stop-color="#1cb0f6"></stop></linearGradient><linearGradient id="95" x1="0%" y1="0%" x2="100%" y2="0%"><stop offset="0%" stop-color="#f00978"></stop> <stop offset="100%" stop-color="#3f51b1"></stop></linearGradient><linearGradient id="96" x1="0%" y1="0%" x2="100%" y2="0%"><stop offset="0%" stop-color="#7873f5"></stop> <stop offset="100%" stop-color="#ec77ab"></stop></linearGradient><linearGradient id="97" x1="0%" y1="0%" x2="100%" y2="0%"><stop offset="0%" stop-color="#f9d423"></stop> <stop offset="100%" stop-color="#e14fad"></stop></linearGradient><linearGradient id="98" x1="0%" y1="0%" x2="100%" y2="0%"><stop offset="0%" stop-color="#009efd"></stop> <stop offset="100%" stop-color="#2af598"></stop></linearGradient><linearGradient id="99" x1="0%" y1="0%" x2="100%" y2="0%"><stop offset="0%" stop-color="#ffcc00"></stop> <stop offset="100%" stop-color="#00b140"></stop></linearGradient><linearGradient id="100" x1="0%" y1="0%" x2="100%" y2="0%"><stop offset="0%" stop-color="#d51007"></stop> <stop offset="100%" stop-color="#ff8177"></stop></linearGradient><linearGradient id="102" x1="0%" y1="0%" x2="100%" y2="0%"><stop offset="0%" stop-color="#a2b6df"></stop> <stop offset="100%" stop-color="#0c3483"></stop></linearGradient><linearGradient id="103" x1="0%" y1="0%" x2="100%" y2="0%"><stop offset="0%" stop-color="#7ac5d8"></stop> <stop offset="100%" stop-color="#eea2a2"></stop></linearGradient><linearGradient id="104" x1="0%" y1="0%" x2="100%" y2="0%"><stop offset="0%" stop-color="#00ecbc"></stop> <stop offset="100%" stop-color="#007adf"></stop></linearGradient><linearGradient id="105" x1="0%" y1="0%" x2="100%" y2="0%"><stop offset="0%" stop-color="#b88746"></stop> <stop offset="100%" stop-color="#fdf5a6"></stop></linearGradient></defs><g class="iconmbgsvg" transform="translate(23.4573974609375,56.919761657714844)"><g fill="#E9945B" hollow-target="textRect"><g mask="url(#4444c4f2-36af-4448-ab68-c2aa63340ce6)"><g><rect fill="#E9945B" fill-opacity="0" stroke-width="2" x="0" y="0" width="138" height="136.16047202296969" class="image-rect"></rect> <svg filter="url(#colors847489080)" x="0" y="0" width="138" height="136.16047202296969" filtersec="colorsf830247789" class="image-svg-svg primary" style="overflow: visible;"><svg xmlns="http://www.w3.org/2000/svg" xmlns:xlink="http://www.w3.org/1999/xlink" fill="#000000" version="1.1" x="0px" y="0px" viewBox="4.999999046325684 5.600000381469727 89.99999237060547 88.79999542236328" enable-background="new 0 0 100 100" xml:space="preserve"><g><circle cx="38.1" cy="24.5" r="18.9"></circle><circle cx="84.7" cy="58.2" r="10.3"></circle><circle cx="76.5" cy="25.9" r="14.4"></circle><circle cx="62.9" cy="42.5" r="4.5"></circle><circle cx="68.2" cy="54.7" r="4.2"></circle><circle cx="48.1" cy="58.4" r="11.4"></circle><circle cx="66.6" cy="80.7" r="12.6"></circle><circle cx="34.4" cy="83.1" r="11.3"></circle><circle cx="19.3" cy="56.1" r="14.3"></circle></g></svg></svg> <defs><filter id="colors847489080"><feColorMatrix type="matrix" values="0 0 0 0 0.0234375  0 0 0 0 0.37109375  0 0 0 0 0.2734375  0 0 0 1 0" class="icon-feColorMatrix "></feColorMatrix></filter> <filter id="colorsf830247789"><feColorMatrix type="matrix" values="0 0 0 0 0.99609375  0 0 0 0 0.99609375  0 0 0 0 0.99609375  0 0 0 1 0" class="icon-fecolormatrix"></feColorMatrix></filter> <filter id="colorsb8151882664"><feColorMatrix type="matrix" values="0 0 0 0 0  0 0 0 0 0  0 0 0 0 0  0 0 0 1 0" class="icon-fecolormatrix"></feColorMatrix></filter></defs></g></g> <g transform="translate(97.17720031738281,88.50048065185547)"><g fill-rule="" class="tp-name" transform="translate(0,0)"><g transform="scale(0.7400781249999998)"><g><g fill="#ff0050" transform="translate(0, 0)"><path d="M27.80114083060518-23.4969C28.24412347264049-24.0262 28.225087523978992-24.736400000000003 27.718936332940434-25.486800000000002 26.67499950142341-27.0345 23.887311745357316-28.320900000000005 21.577311745357314-28.320900000000005 20.457311745357316-28.320900000000005 19.60519527024815-28.012700000000002 19.176731835275696-27.4767L4.592341829504266-9.648000000000001-6.091063667059563-25.486800000000002C-7.135000498576586-27.0345-9.922688254642686-28.320900000000005-12.232688254642685-28.320900000000005-14.542688254642687-28.320900000000005-15.595000498576585-27.0345-14.551063667059562-25.486800000000002L0.7283754124168782-2.8341000000000003C1.7723122439339023-1.2864 4.56 0 6.87 0 7.93 0 8.86923171748623-0.268 9.275099117144467-0.8375L16.91532447153957-10.1773 37.14509911714447-0.8375C38.31923171748623-0.268 39.63 0 40.68 0 42.99 0 44.0423122439339-1.2864 42.99837541241688-2.8341000000000003 42.52385867081823-3.5376000000000003 41.613188272716826-4.294700000000001 40.39617091475213-4.824000000000001L20.17091547621008-14.1571ZM94.90893633294043-25.486800000000002C93.86499950142341-27.0345 91.08731174535731-28.320900000000005 88.77731174535731-28.320900000000005 86.45731174535732-28.320900000000005 85.41499950142342-27.0345 86.45893633294044-25.486800000000002L97.14234182950428-9.648000000000001 79.98063908122235-17.5674C78.79198727381775-18.1436 77.49573819836682-18.4049 76.43573819836682-18.4049 75.38573819836682-18.4049 74.44198727381776-18.1436 74.03063908122235-17.5674L67.55234182950427-9.648000000000001 56.868936332940436-25.486800000000002C55.82499950142342-27.0345 53.04731174535732-28.320900000000005 50.72731174535731-28.320900000000005 48.41731174535731-28.320900000000005 47.37499950142342-27.0345 48.41893633294043-25.486800000000002L63.69837541241688-2.8341000000000003C64.7423122439339-1.2864 67.52 0 69.83 0 70.96 0 71.80211647510917-0.30820000000000003 72.24509911714446-0.8375L81.03177178127943-11.591000000000001 104.33509911714447-0.8375C105.49211647510917-0.30820000000000003 106.75 0 107.88 0 110.19 0 111.23231224393389-1.2864 110.18837541241687-2.8341000000000003ZM136.91127003189658-5.6615L132.6812700318966-5.6615C130.3712700318966-5.6615 129.31443858089986-4.3818 130.35837541241688-2.8341000000000003 131.40231224393392-1.2864 134.19 0 136.5 0L153.41 0C155.72 0 156.7623122439339-1.2864 155.71837541241686-2.8341000000000003 154.67443858089985-4.3818 151.9012700318966-5.6615 149.59127003189658-5.6615L145.3612700318966-5.6615 133.90056092052356-22.652700000000003 138.13056092052355-22.652700000000003C140.44056092052355-22.652700000000003 141.48287316445746-23.9391 140.43893633294044-25.486800000000002 139.3949995014234-27.0345 136.6173117453573-28.320900000000005 134.3073117453573-28.320900000000005L117.39731174535731-28.320900000000005C115.08731174535731-28.320900000000005 114.03499950142343-27.0345 115.07893633294044-25.486800000000002 116.12287316445747-23.9391 118.91056092052355-22.652700000000003 121.22056092052355-22.652700000000003L125.45056092052354-22.652700000000003ZM188.81056092052356-22.652700000000003C188.81056092052356-22.652700000000003 174.21617091475213-4.824000000000001 174.21617091475213-4.824000000000001 173.78318827271684-4.294700000000001 173.8022242213783-3.5845 174.30837541241686-2.8341000000000003 175.3523122439339-1.2864 178.13 0 180.44 0L214.26 0C216.57 0 217.6123122439339-1.2864 216.56837541241686-2.8341000000000003 215.52443858089984-4.3818 212.75127003189658-5.6615 210.44127003189658-5.6615L186.7912700318966-5.6615C186.7912700318966-5.6615 201.38114083060518-23.4969 201.38114083060518-23.4969 201.88412347264048-24.0262 201.7679722816019-24.7766 201.28893633294044-25.486800000000002 200.2449995014234-27.0345 197.4673117453573-28.320900000000005 195.1573117453573-28.320900000000005L161.3373117453573-28.320900000000005C159.0273117453573-28.320900000000005 157.9849995014234-27.0345 159.02893633294045-25.486800000000002 160.07287316445746-23.9391 162.85056092052355-22.652700000000003 165.16056092052355-22.652700000000003Z" transform="translate(14.954998016357422, 28.320899963378906)"></path></g><g fill="#00faf0" transform="translate(0, 0)"><path d="M27.80114083060518-23.4969C28.24412347264049-24.0262 28.225087523978992-24.736400000000003 27.718936332940434-25.486800000000002 26.67499950142341-27.0345 23.887311745357316-28.320900000000005 21.577311745357314-28.320900000000005 20.457311745357316-28.320900000000005 19.60519527024815-28.012700000000002 19.176731835275696-27.4767L4.592341829504266-9.648000000000001-6.091063667059563-25.486800000000002C-7.135000498576586-27.0345-9.922688254642686-28.320900000000005-12.232688254642685-28.320900000000005-14.542688254642687-28.320900000000005-15.595000498576585-27.0345-14.551063667059562-25.486800000000002L0.7283754124168782-2.8341000000000003C1.7723122439339023-1.2864 4.56 0 6.87 0 7.93 0 8.86923171748623-0.268 9.275099117144467-0.8375L16.91532447153957-10.1773 37.14509911714447-0.8375C38.31923171748623-0.268 39.63 0 40.68 0 42.99 0 44.0423122439339-1.2864 42.99837541241688-2.8341000000000003 42.52385867081823-3.5376000000000003 41.613188272716826-4.294700000000001 40.39617091475213-4.824000000000001L20.17091547621008-14.1571ZM94.90893633294043-25.486800000000002C93.86499950142341-27.0345 91.08731174535731-28.320900000000005 88.77731174535731-28.320900000000005 86.45731174535732-28.320900000000005 85.41499950142342-27.0345 86.45893633294044-25.486800000000002L97.14234182950428-9.648000000000001 79.98063908122235-17.5674C78.79198727381775-18.1436 77.49573819836682-18.4049 76.43573819836682-18.4049 75.38573819836682-18.4049 74.44198727381776-18.1436 74.03063908122235-17.5674L67.55234182950427-9.648000000000001 56.868936332940436-25.486800000000002C55.82499950142342-27.0345 53.04731174535732-28.320900000000005 50.72731174535731-28.320900000000005 48.41731174535731-28.320900000000005 47.37499950142342-27.0345 48.41893633294043-25.486800000000002L63.69837541241688-2.8341000000000003C64.7423122439339-1.2864 67.52 0 69.83 0 70.96 0 71.80211647510917-0.30820000000000003 72.24509911714446-0.8375L81.03177178127943-11.591000000000001 104.33509911714447-0.8375C105.49211647510917-0.30820000000000003 106.75 0 107.88 0 110.19 0 111.23231224393389-1.2864 110.18837541241687-2.8341000000000003ZM136.91127003189658-5.6615L132.6812700318966-5.6615C130.3712700318966-5.6615 129.31443858089986-4.3818 130.35837541241688-2.8341000000000003 131.40231224393392-1.2864 134.19 0 136.5 0L153.41 0C155.72 0 156.7623122439339-1.2864 155.71837541241686-2.8341000000000003 154.67443858089985-4.3818 151.9012700318966-5.6615 149.59127003189658-5.6615L145.3612700318966-5.6615 133.90056092052356-22.652700000000003 138.13056092052355-22.652700000000003C140.44056092052355-22.652700000000003 141.48287316445746-23.9391 140.43893633294044-25.486800000000002 139.3949995014234-27.0345 136.6173117453573-28.320900000000005 134.3073117453573-28.320900000000005L117.39731174535731-28.320900000000005C115.08731174535731-28.320900000000005 114.03499950142343-27.0345 115.07893633294044-25.486800000000002 116.12287316445747-23.9391 118.91056092052355-22.652700000000003 121.22056092052355-22.652700000000003L125.45056092052354-22.652700000000003ZM188.81056092052356-22.652700000000003C188.81056092052356-22.652700000000003 174.21617091475213-4.824000000000001 174.21617091475213-4.824000000000001 173.78318827271684-4.294700000000001 173.8022242213783-3.5845 174.30837541241686-2.8341000000000003 175.3523122439339-1.2864 178.13 0 180.44 0L214.26 0C216.57 0 217.6123122439339-1.2864 216.56837541241686-2.8341000000000003 215.52443858089984-4.3818 212.75127003189658-5.6615 210.44127003189658-5.6615L186.7912700318966-5.6615C186.7912700318966-5.6615 201.38114083060518-23.4969 201.38114083060518-23.4969 201.88412347264048-24.0262 201.7679722816019-24.7766 201.28893633294044-25.486800000000002 200.2449995014234-27.0345 197.4673117453573-28.320900000000005 195.1573117453573-28.320900000000005L161.3373117453573-28.320900000000005C159.0273117453573-28.320900000000005 157.9849995014234-27.0345 159.02893633294045-25.486800000000002 160.07287316445746-23.9391 162.85056092052355-22.652700000000003 165.16056092052355-22.652700000000003Z" transform="translate(14.954998016357422, 28.320899963378906)"></path></g><g><path d="M27.80114083060518-23.4969C28.24412347264049-24.0262 28.225087523978992-24.736400000000003 27.718936332940434-25.486800000000002 26.67499950142341-27.0345 23.887311745357316-28.320900000000005 21.577311745357314-28.320900000000005 20.457311745357316-28.320900000000005 19.60519527024815-28.012700000000002 19.176731835275696-27.4767L4.592341829504266-9.648000000000001-6.091063667059563-25.486800000000002C-7.135000498576586-27.0345-9.922688254642686-28.320900000000005-12.232688254642685-28.320900000000005-14.542688254642687-28.320900000000005-15.595000498576585-27.0345-14.551063667059562-25.486800000000002L0.7283754124168782-2.8341000000000003C1.7723122439339023-1.2864 4.56 0 6.87 0 7.93 0 8.86923171748623-0.268 9.275099117144467-0.8375L16.91532447153957-10.1773 37.14509911714447-0.8375C38.31923171748623-0.268 39.63 0 40.68 0 42.99 0 44.0423122439339-1.2864 42.99837541241688-2.8341000000000003 42.52385867081823-3.5376000000000003 41.613188272716826-4.294700000000001 40.39617091475213-4.824000000000001L20.17091547621008-14.1571ZM94.90893633294043-25.486800000000002C93.86499950142341-27.0345 91.08731174535731-28.320900000000005 88.77731174535731-28.320900000000005 86.45731174535732-28.320900000000005 85.41499950142342-27.0345 86.45893633294044-25.486800000000002L97.14234182950428-9.648000000000001 79.98063908122235-17.5674C78.79198727381775-18.1436 77.49573819836682-18.4049 76.43573819836682-18.4049 75.38573819836682-18.4049 74.44198727381776-18.1436 74.03063908122235-17.5674L67.55234182950427-9.648000000000001 56.868936332940436-25.486800000000002C55.82499950142342-27.0345 53.04731174535732-28.320900000000005 50.72731174535731-28.320900000000005 48.41731174535731-28.320900000000005 47.37499950142342-27.0345 48.41893633294043-25.486800000000002L63.69837541241688-2.8341000000000003C64.7423122439339-1.2864 67.52 0 69.83 0 70.96 0 71.80211647510917-0.30820000000000003 72.24509911714446-0.8375L81.03177178127943-11.591000000000001 104.33509911714447-0.8375C105.49211647510917-0.30820000000000003 106.75 0 107.88 0 110.19 0 111.23231224393389-1.2864 110.18837541241687-2.8341000000000003ZM136.91127003189658-5.6615L132.6812700318966-5.6615C130.3712700318966-5.6615 129.31443858089986-4.3818 130.35837541241688-2.8341000000000003 131.40231224393392-1.2864 134.19 0 136.5 0L153.41 0C155.72 0 156.7623122439339-1.2864 155.71837541241686-2.8341000000000003 154.67443858089985-4.3818 151.9012700318966-5.6615 149.59127003189658-5.6615L145.3612700318966-5.6615 133.90056092052356-22.652700000000003 138.13056092052355-22.652700000000003C140.44056092052355-22.652700000000003 141.48287316445746-23.9391 140.43893633294044-25.486800000000002 139.3949995014234-27.0345 136.6173117453573-28.320900000000005 134.3073117453573-28.320900000000005L117.39731174535731-28.320900000000005C115.08731174535731-28.320900000000005 114.03499950142343-27.0345 115.07893633294044-25.486800000000002 116.12287316445747-23.9391 118.91056092052355-22.652700000000003 121.22056092052355-22.652700000000003L125.45056092052354-22.652700000000003ZM188.81056092052356-22.652700000000003C188.81056092052356-22.652700000000003 174.21617091475213-4.824000000000001 174.21617091475213-4.824000000000001 173.78318827271684-4.294700000000001 173.8022242213783-3.5845 174.30837541241686-2.8341000000000003 175.3523122439339-1.2864 178.13 0 180.44 0L214.26 0C216.57 0 217.6123122439339-1.2864 216.56837541241686-2.8341000000000003 215.52443858089984-4.3818 212.75127003189658-5.6615 210.44127003189658-5.6615L186.7912700318966-5.6615C186.7912700318966-5.6615 201.38114083060518-23.4969 201.38114083060518-23.4969 201.88412347264048-24.0262 201.7679722816019-24.7766 201.28893633294044-25.486800000000002 200.2449995014234-27.0345 197.4673117453573-28.320900000000005 195.1573117453573-28.320900000000005L161.3373117453573-28.320900000000005C159.0273117453573-28.320900000000005 157.9849995014234-27.0345 159.02893633294045-25.486800000000002 160.07287316445746-23.9391 162.85056092052355-22.652700000000003 165.16056092052355-22.652700000000003Z" transform="translate(14.954998016357422, 28.320899963378906)"></path></g></g></g></g> <g fill-rule="" class="tp-slogan" fill="#065F46" transform="translate(-68.26211547851562,22.95967674255371)"> <g transform="scale(1, 1)"><g transform="scale(1.02)"><path d="M6.01-3.33L6.01-3.33Q6.12-3.40 6.22-3.40L6.22-3.40Q6.38-3.40 6.44-3.23Q6.50-3.06 6.50-2.82L6.50-2.82Q6.50-2.63 6.43-2.43Q6.37-2.24 6.27-2.07Q6.16-1.89 6.04-1.73Q5.91-1.56 5.78-1.43L5.78-1.43Q5.46-1.10 5.07-0.83Q4.68-0.57 4.24-0.38Q3.80-0.20 3.34-0.10Q2.88 0 2.41 0L2.41 0Q1.75 0 1.29-0.21Q0.84-0.42 0.56-0.77Q0.28-1.12 0.16-1.58Q0.05-2.04 0.05-2.54Q0.05-3.05 0.16-3.56Q0.26-4.07 0.43-4.53L0.43-4.53Q0.61-5.02 0.89-5.53Q1.17-6.03 1.52-6.50Q1.88-6.97 2.31-7.38Q2.74-7.79 3.23-8.10Q3.72-8.40 4.26-8.58Q4.79-8.75 5.36-8.75L5.36-8.75Q5.67-8.75 5.95-8.67Q6.23-8.58 6.45-8.41Q6.66-8.23 6.79-7.98Q6.91-7.73 6.91-7.40L6.91-7.40Q6.91-7.04 6.83-6.70Q6.74-6.37 6.59-6.08Q6.45-5.79 6.25-5.56Q6.05-5.33 5.84-5.17Q5.63-5.00 5.40-4.91Q5.18-4.82 4.98-4.82L4.98-4.82Q4.80-4.82 4.65-4.89Q4.49-4.97 4.39-5.14Q4.28-5.30 4.23-5.56Q4.18-5.82 4.20-6.19L4.20-6.19Q4.22-6.40 4.32-6.52Q4.42-6.64 4.56-6.71Q4.71-6.79 4.87-6.83Q5.03-6.88 5.17-6.95Q5.31-7.01 5.40-7.12Q5.49-7.22 5.48-7.40L5.48-7.40Q5.48-7.46 5.47-7.49L5.47-7.49Q5.43-7.52 5.39-7.52Q5.36-7.52 5.31-7.52L5.31-7.52Q4.93-7.52 4.55-7.34Q4.16-7.16 3.79-6.85Q3.42-6.53 3.08-6.12Q2.74-5.70 2.45-5.23Q2.16-4.76 1.94-4.27Q1.72-3.77 1.59-3.30Q1.46-2.83 1.44-2.41Q1.42-2.00 1.53-1.68Q1.64-1.37 1.89-1.19Q2.14-1.01 2.57-1.01L2.57-1.01Q3.19-1.01 3.66-1.16Q4.12-1.31 4.46-1.54Q4.79-1.78 5.03-2.05Q5.27-2.33 5.44-2.59Q5.61-2.85 5.75-3.06Q5.88-3.26 6.01-3.33ZM14.88-0.19L14.88-0.19Q14.06-0.32 13.61-1.23Q13.17-2.14 13.22-3.26Q13.27-4.38 13.54-4.86L13.54-4.86Q13.45-5.21 13.53-5.94Q13.61-6.67 14.38-7.52Q15.15-8.38 16.58-8.48L16.58-8.48Q17.71-8.40 18.11-8.06L18.11-8.06Q18.62-7.74 18.93-7.22Q19.24-6.71 19.36-6.08Q19.48-5.46 19.43-4.76Q19.38-4.07 19.17-3.39Q18.96-2.72 18.59-2.10Q18.22-1.49 17.72-1.02Q17.22-0.55 16.43-0.28Q15.64-0.01 14.88-0.19ZM14.74-5.54L14.74-5.54Q14.74-5.39 14.82-5.19Q14.89-4.99 15.01-4.80Q15.13-4.62 15.29-4.50Q15.45-4.37 15.62-4.37L15.62-4.37Q15.74-4.37 15.84-4.42Q15.94-4.46 16.03-4.46L16.03-4.46Q16.09-4.46 16.15-4.42Q16.20-4.38 16.26-4.27L16.26-4.27Q16.38-4.04 16.31-3.88Q16.24-3.73 16.06-3.62Q15.88-3.52 15.63-3.47Q15.38-3.43 15.11-3.43L15.11-3.43Q14.85-3.43 14.60-3.50Q14.36-3.58 14.14-3.71L14.14-3.71Q14.10-3.52 14.07-3.25Q14.04-2.98 14.05-2.70Q14.06-2.41 14.12-2.14Q14.18-1.87 14.30-1.66Q14.43-1.44 14.62-1.31Q14.82-1.18 15.11-1.18L15.11-1.18Q15.33-1.18 15.54-1.23Q15.76-1.29 15.96-1.39Q16.15-1.48 16.34-1.61Q16.52-1.74 16.69-1.88L16.69-1.88Q16.97-2.13 17.22-2.50Q17.46-2.87 17.65-3.29Q17.83-3.72 17.94-4.18Q18.06-4.65 18.09-5.09Q18.12-5.54 18.04-5.94Q17.97-6.34 17.78-6.64Q17.60-6.94 17.28-7.12Q16.97-7.30 16.51-7.30L16.51-7.30Q16.14-7.30 15.82-7.16Q15.50-7.03 15.26-6.79Q15.02-6.54 14.88-6.22Q14.74-5.90 14.74-5.54ZM28.41-7.67L28.41-7.67Q28.41-7.57 28.40-7.31Q28.40-7.05 28.40-6.70Q28.40-6.34 28.40-5.91Q28.40-5.48 28.41-5.04Q28.42-4.60 28.43-4.17Q28.45-3.74 28.48-3.39Q28.51-3.03 28.55-2.77Q28.59-2.51 28.65-2.41L28.65-2.41Q28.66-2.34 28.70-2.34L28.70-2.34Q28.78-2.34 28.95-2.58Q29.13-2.81 29.36-3.20Q29.60-3.59 29.87-4.10Q30.15-4.61 30.45-5.17Q30.74-5.73 31.03-6.30Q31.32-6.87 31.57-7.37Q31.82-7.88 32.02-8.29Q32.23-8.70 32.34-8.93L32.34-8.93Q32.50-9.30 32.92-9.30L32.92-9.30Q33.02-9.30 33.17-9.24Q33.31-9.18 33.44-9.08Q33.56-8.99 33.65-8.87Q33.74-8.75 33.74-8.63L33.74-8.63Q33.74-8.54 33.71-8.40Q33.68-8.26 33.64-8.10Q33.60-7.95 33.56-7.80Q33.52-7.66 33.49-7.56L33.49-7.56Q33.25-6.70 33.00-5.84Q32.76-4.97 32.56-4.09Q32.36-3.22 32.24-2.33Q32.12-1.45 32.12-0.54L32.12-0.54Q32.12-0.19 32.16 0.07Q32.21 0.32 32.28 0.50Q32.35 0.68 32.43 0.81Q32.51 0.93 32.58 1.02Q32.65 1.11 32.70 1.19Q32.75 1.27 32.75 1.37L32.75 1.37Q32.75 1.73 32.55 1.90Q32.34 2.07 32.03 2.07L32.03 2.07Q31.86 2.07 31.68 2.02Q31.49 1.97 31.30 1.88Q31.11 1.78 30.93 1.63Q30.74 1.49 30.59 1.30L30.59 1.30Q30.33 1.00 30.26 0.53Q30.18 0.05 30.22-0.51Q30.26-1.08 30.39-1.69Q30.52-2.31 30.68-2.89Q30.84-3.48 31.00-3.99Q31.17-4.50 31.28-4.85L31.28-4.85Q31.19-4.73 31.05-4.51Q30.91-4.28 30.73-3.99Q30.55-3.70 30.34-3.37Q30.13-3.04 29.91-2.71Q29.69-2.38 29.46-2.09Q29.23-1.79 29.02-1.56Q28.80-1.33 28.60-1.19Q28.41-1.05 28.25-1.05L28.25-1.05Q28.04-1.05 27.92-1.26Q27.80-1.46 27.73-1.80Q27.67-2.14 27.65-2.57Q27.63-3.01 27.64-3.46Q27.64-3.92 27.66-4.36Q27.68-4.80 27.68-5.16L27.68-5.16Q27.59-4.88 27.47-4.45Q27.36-4.03 27.24-3.54Q27.12-3.06 27-2.57Q26.88-2.07 26.75-1.64Q26.63-1.20 26.51-0.87Q26.40-0.53 26.29-0.38L26.29-0.38Q26.23-0.29 26.13-0.22Q26.02-0.14 25.90-0.08Q25.78-0.02 25.65 0.01Q25.52 0.05 25.42 0.05L25.42 0.05Q25.20 0.05 25.11-0.08Q25.01-0.21 25.01-0.42L25.01-0.42Q25.01-0.43 25.06-0.63Q25.10-0.84 25.17-1.18Q25.25-1.52 25.35-1.98Q25.45-2.44 25.56-2.96Q25.68-3.48 25.80-4.03Q25.93-4.58 26.05-5.12Q26.17-5.65 26.29-6.13Q26.41-6.62 26.50-7.01Q26.60-7.39 26.67-7.66Q26.75-7.92 26.79-8.00L26.79-8.00Q26.87-8.18 27.04-8.29Q27.21-8.40 27.42-8.40L27.42-8.40Q27.60-8.40 27.82-8.33Q28.04-8.26 28.18-8.15L28.18-8.15Q28.30-8.05 28.35-7.94Q28.41-7.82 28.41-7.67ZM40.86-0.84L40.86-0.84Q40.81-0.70 40.67-0.55Q40.53-0.40 40.35-0.28Q40.17-0.15 39.98-0.08Q39.79 0 39.63 0L39.63 0Q39.47 0 39.37-0.10Q39.26-0.20 39.29-0.36L39.29-0.36Q39.39-0.86 39.57-1.45Q39.74-2.04 39.95-2.70Q40.17-3.35 40.40-4.03Q40.64-4.71 40.88-5.36Q41.11-6.02 41.32-6.63Q41.53-7.25 41.69-7.77L41.69-7.77Q41.67-7.78 41.63-7.78L41.63-7.78Q41.29-7.75 41.03-7.61Q40.77-7.47 40.54-7.26Q40.31-7.04 40.10-6.78Q39.88-6.51 39.64-6.24Q39.40-5.97 39.11-5.72Q38.82-5.47 38.44-5.27L38.44-5.27Q38.29-5.20 38.13-5.20L38.13-5.20Q37.90-5.20 37.70-5.33Q37.50-5.46 37.39-5.68Q37.28-5.91 37.30-6.21Q37.32-6.51 37.54-6.86L37.54-6.86Q37.81-7.27 38.17-7.58Q38.54-7.90 38.96-8.12Q39.39-8.35 39.87-8.50Q40.34-8.65 40.83-8.73Q41.33-8.82 41.82-8.85Q42.32-8.89 42.80-8.89L42.80-8.89Q43.14-8.89 43.58-8.84Q44.02-8.79 44.47-8.68Q44.92-8.57 45.36-8.40Q45.80-8.22 46.14-7.96Q46.48-7.70 46.68-7.35Q46.89-7.01 46.89-6.56L46.89-6.56Q46.89-6.15 46.71-5.79Q46.52-5.44 46.20-5.13Q45.88-4.82 45.47-4.57Q45.06-4.31 44.62-4.10Q44.17-3.90 43.71-3.74Q43.26-3.58 42.86-3.47Q42.46-3.36 42.15-3.30Q41.84-3.23 41.67-3.22L41.67-3.22Q41.56-2.87 41.48-2.64Q41.41-2.40 41.35-2.23Q41.29-2.05 41.24-1.91Q41.19-1.77 41.13-1.62Q41.07-1.47 41.01-1.29Q40.95-1.11 40.86-0.84ZM42.02-4.37L42.02-4.37Q42.22-4.41 42.54-4.51Q42.86-4.62 43.22-4.78Q43.58-4.94 43.94-5.14Q44.30-5.35 44.59-5.59Q44.88-5.83 45.06-6.09Q45.24-6.35 45.24-6.62L45.24-6.62Q45.24-6.83 45.12-7.00Q44.99-7.17 44.80-7.29Q44.60-7.42 44.36-7.51Q44.12-7.61 43.87-7.66Q43.62-7.72 43.40-7.75Q43.18-7.79 43.03-7.79L43.03-7.79Q43.05-7.75 43.05-7.68L43.05-7.68Q43.05-7.61 42.98-7.36Q42.91-7.12 42.81-6.79Q42.71-6.46 42.59-6.08Q42.46-5.70 42.35-5.36Q42.23-5.02 42.14-4.75Q42.05-4.48 42.02-4.37ZM53.14-8.12L53.14-8.12Q53.27-8.31 53.42-8.37Q53.57-8.43 53.79-8.43L53.79-8.43Q54.08-8.43 54.21-8.32Q54.35-8.21 54.35-7.92L54.35-7.92Q54.35-7.68 54.24-7.27Q54.12-6.87 53.95-6.37Q53.78-5.87 53.59-5.31Q53.39-4.76 53.23-4.21Q53.07-3.67 52.98-3.18Q52.88-2.68 52.91-2.31Q52.93-1.94 53.12-1.72Q53.30-1.51 53.70-1.52L53.70-1.52Q54.07-1.54 54.39-1.73Q54.70-1.93 54.98-2.25Q55.25-2.57 55.47-2.99Q55.69-3.42 55.88-3.89Q56.07-4.36 56.22-4.85Q56.37-5.35 56.48-5.81Q56.60-6.27 56.69-6.68Q56.78-7.08 56.85-7.38L56.85-7.38Q56.88-7.48 56.91-7.61Q56.94-7.73 56.97-7.87Q57.01-8.00 57.05-8.12Q57.10-8.24 57.16-8.32L57.16-8.32Q57.21-8.39 57.29-8.44Q57.37-8.48 57.46-8.51Q57.55-8.54 57.64-8.55Q57.74-8.55 57.83-8.55L57.83-8.55Q58.01-8.55 58.11-8.46Q58.21-8.36 58.24-8.21Q58.27-8.06 58.25-7.87Q58.23-7.68 58.19-7.49Q58.15-7.30 58.10-7.14Q58.05-6.98 58.03-6.88L58.03-6.88Q57.86-6.17 57.70-5.41Q57.54-4.64 57.33-3.90Q57.12-3.16 56.82-2.49Q56.51-1.82 56.06-1.28Q55.60-0.75 54.96-0.40Q54.32-0.05 53.42 0.04L53.42 0.04Q53.34 0.04 53.26 0.04Q53.18 0.05 53.10 0.05L53.10 0.05Q52.49 0.05 52.14-0.21Q51.79-0.46 51.63-0.89Q51.47-1.32 51.47-1.90Q51.48-2.47 51.59-3.10Q51.70-3.73 51.88-4.38Q52.07-5.03 52.26-5.63Q52.45-6.23 52.63-6.74Q52.81-7.25 52.91-7.58L52.91-7.58Q52.95-7.72 53.01-7.86Q53.06-8.00 53.14-8.12ZM66.42-7.13L66.42-7.13Q65.55-7.08 64.71-7.04Q63.86-7.00 62.99-7.00L62.99-7.00Q62.88-7.00 62.76-7.02Q62.64-7.04 62.54-7.09Q62.44-7.14 62.37-7.23Q62.30-7.31 62.30-7.44L62.30-7.44Q62.30-7.54 62.36-7.62Q62.42-7.71 62.50-7.78Q62.59-7.86 62.69-7.92Q62.78-7.98 62.86-8.02L62.86-8.02Q63.04-8.10 63.24-8.13Q63.43-8.16 63.63-8.16L63.63-8.16L63.66-8.16Q63.95-8.19 64.30-8.19Q64.65-8.19 64.95-8.19L64.95-8.19L67.80-8.24Q68.91-8.27 70.00-8.29Q71.09-8.32 72.19-8.32L72.19-8.32Q72.28-8.32 72.40-8.32Q72.52-8.31 72.64-8.30Q72.77-8.29 72.89-8.27Q73.00-8.24 73.07-8.20L73.07-8.20L73.04-8.22Q73.17-8.16 73.17-8.01L73.17-8.01Q73.17-7.89 73.11-7.79Q73.05-7.69 72.96-7.61Q72.87-7.54 72.76-7.49Q72.65-7.44 72.54-7.42L72.54-7.42Q72.31-7.37 72.07-7.35Q71.83-7.34 71.58-7.34L71.58-7.34Q71.53-7.34 71.35-7.33Q71.17-7.32 70.91-7.32Q70.65-7.31 70.34-7.30Q70.04-7.29 69.72-7.28Q69.41-7.27 69.11-7.25Q68.81-7.24 68.58-7.22Q68.34-7.21 68.19-7.19Q68.04-7.18 68.03-7.17L68.03-7.17Q67.98-7.12 67.95-7.06Q67.92-7.00 67.89-6.93L67.89-6.93Q67.75-6.58 67.65-6.20Q67.55-5.82 67.44-5.46L67.44-5.46Q67.17-4.56 66.91-3.69Q66.64-2.82 66.37-1.93L66.37-1.93Q66.32-1.76 66.10-1.10Q65.88-0.45 65.81-0.23Q65.74-0.02 65.66 0.17Q65.58 0.36 65.49 0.50L65.49 0.50Q65.43 0.59 65.33 0.66Q65.24 0.73 65.13 0.79Q65.02 0.84 64.90 0.87Q64.78 0.90 64.68 0.90L64.68 0.90Q64.45 0.90 64.59 0.24Q64.73-0.43 66.42-7.13ZM75.30-0.42L75.30-0.42Q75.26-0.33 75.17-0.25Q75.08-0.18 74.96-0.12Q74.85-0.06 74.74-0.03Q74.62 0 74.53 0L74.53 0Q74.44-0.39 74.71-1.52Q74.98-2.65 75.30-3.95Q75.61-5.25 75.98-6.51L75.98-6.51Q76.03-6.67 76.07-6.81Q76.12-6.96 76.15-7.13L76.15-7.13Q76.03-7.08 75.98-7.10Q75.93-7.11 75.75-7.15Q75.56-7.18 75.45-7.51Q75.34-7.85 75.52-7.93Q75.70-8.01 75.90-8.10Q76.10-8.19 76.29-8.27Q76.48-8.36 76.91-8.53Q77.34-8.71 77.38-8.73L77.38-8.73Q77.44-8.75 77.48-8.75Q77.53-8.75 77.58-8.75L77.58-8.75Q77.67-8.75 77.79-8.71Q77.91-8.67 78.02-8.59Q78.12-8.52 78.20-8.43Q78.28-8.33 78.24-8.20Q78.21-8.07 77.91-7.90Q77.61-7.72 77.59-7.65L77.59-7.65Q77.21-6.42 76.83-5.21Q76.46-4.01 76.08-2.78L76.08-2.78Q75.43-0.76 75.39-0.64Q75.35-0.53 75.30-0.42ZM85.73-8.60L85.73-8.60Q85.89-8.60 86.04-8.54Q86.20-8.48 86.32-8.37Q86.44-8.26 86.52-8.12Q86.60-7.97 86.57-7.55Q86.55-7.13 86.61-6.38Q86.67-5.64 86.94-4.27Q87.21-2.89 87.53-1.73L87.53-1.73Q88.16-3.88 88.56-5.38Q88.96-6.88 89.34-8.39L89.34-8.39Q89.41-8.63 89.46-8.86Q89.51-9.09 89.60-9.31L89.60-9.31Q89.64-9.39 89.68-9.47Q89.72-9.55 89.80-9.60L89.80-9.60L89.82-9.62Q89.88-9.66 89.95-9.67Q90.02-9.67 90.09-9.67L90.09-9.67L90.14-9.67Q90.36-9.54 90.42-9.23Q90.48-8.91 90.32-7.55Q90.16-6.19 89.66-4.25Q89.16-2.31 88.65-0.36L88.65-0.36Q88.57-0.04 88.36 0.18Q88.14 0.39 87.85 0.39L87.85 0.39Q87.63 0.39 87.37 0.23Q87.12 0.08 86.85-0.30L86.85-0.30Q86.81-0.37 86.79-0.45Q86.77-0.54 86.75-0.62L86.75-0.62Q86.51-1.65 86.29-2.70Q86.07-3.74 85.77-4.77L85.77-4.77Q85.51-3.83 85.26-2.89Q85.01-1.96 84.76-1.02L84.76-1.02Q84.74-0.97 84.71-0.89Q84.68-0.81 84.64-0.73Q84.59-0.64 84.55-0.57Q84.50-0.50 84.46-0.47L84.46-0.47Q84.22-0.18 83.93-0.32Q83.65-0.46 83.82-1.71Q83.99-2.96 84.25-4.29Q84.52-5.62 84.81-6.96L84.81-6.96Q84.84-7.10 84.86-7.27Q84.88-7.45 84.91-7.62Q84.94-7.79 84.98-7.95Q85.01-8.12 85.08-8.24L85.08-8.24Q85.18-8.43 85.35-8.51Q85.53-8.60 85.73-8.60ZM99.36-3.87L99.36-3.87Q99.58-3.91 99.84-3.93Q100.11-3.96 100.37-3.97Q100.64-3.99 100.89-4.00Q101.14-4.01 101.35-4.01Q101.55-4.02 101.68-4.02Q101.81-4.03 101.82-4.03L101.82-4.03Q102.19-4.03 102.40-3.85Q102.60-3.68 102.65-3.40Q102.70-3.11 102.60-2.75Q102.50-2.39 102.27-2.01Q102.04-1.63 101.67-1.27Q101.31-0.91 100.83-0.63Q100.35-0.35 99.76-0.17Q99.18 0 98.48 0L98.48 0Q97.90 0 97.45-0.18Q96.99-0.35 96.68-0.68Q96.36-1.01 96.20-1.48Q96.03-1.95 96.03-2.53L96.03-2.53Q96.03-3.21 96.23-3.94Q96.44-4.68 96.81-5.38Q97.17-6.08 97.68-6.72Q98.19-7.35 98.79-7.83Q99.39-8.31 100.07-8.59Q100.75-8.87 101.47-8.87L101.47-8.87Q101.78-8.87 102.06-8.78Q102.34-8.70 102.56-8.52Q102.78-8.35 102.91-8.09Q103.04-7.84 103.04-7.51L103.04-7.51Q103.04-7.27 102.97-7.00Q102.91-6.74 102.79-6.48Q102.67-6.22 102.51-5.99Q102.35-5.75 102.14-5.57Q101.94-5.38 101.70-5.28Q101.47-5.17 101.21-5.17L101.21-5.17L101.15-5.17Q101.03-5.17 100.85-5.21Q100.66-5.25 100.50-5.37Q100.34-5.48 100.24-5.71Q100.14-5.94 100.20-6.31L100.20-6.31Q100.21-6.38 100.34-6.48Q100.46-6.58 100.63-6.70Q100.80-6.82 100.98-6.95Q101.16-7.07 101.29-7.19Q101.42-7.31 101.46-7.41Q101.50-7.51 101.38-7.56L101.38-7.56Q101.19-7.65 100.99-7.65L100.99-7.65Q100.69-7.65 100.38-7.49Q100.07-7.33 99.76-7.06Q99.46-6.79 99.17-6.42Q98.88-6.06 98.63-5.65Q98.37-5.24 98.16-4.80Q97.95-4.36 97.80-3.94Q97.65-3.52 97.56-3.14Q97.48-2.76 97.48-2.46L97.48-2.46Q97.48-2.12 97.59-1.88Q97.70-1.64 97.89-1.49Q98.09-1.33 98.34-1.26Q98.59-1.19 98.87-1.19L98.87-1.19Q99.25-1.19 99.64-1.31Q100.03-1.42 100.35-1.63Q100.67-1.84 100.88-2.12Q101.09-2.41 101.09-2.74L101.09-2.74Q101.09-2.74 101.00-2.73Q100.92-2.72 100.81-2.72Q100.71-2.71 100.61-2.70Q100.52-2.69 100.49-2.69L100.49-2.69Q100.27-2.67 100.12-2.64Q99.97-2.61 99.83-2.59Q99.70-2.57 99.55-2.55Q99.40-2.54 99.16-2.54L99.16-2.54Q98.92-2.54 98.82-2.67Q98.71-2.81 98.71-2.99Q98.70-3.18 98.77-3.37Q98.85-3.56 98.96-3.69L98.96-3.69Q99.05-3.78 99.15-3.81Q99.24-3.85 99.36-3.87ZM120.70-7.13L120.70-7.13Q119.84-7.08 118.99-7.04Q118.14-7.00 117.28-7.00L117.28-7.00Q117.17-7.00 117.05-7.02Q116.93-7.04 116.83-7.09Q116.72-7.14 116.66-7.23Q116.59-7.31 116.59-7.44L116.59-7.44Q116.59-7.54 116.65-7.62Q116.71-7.71 116.79-7.78Q116.88-7.86 116.97-7.92Q117.07-7.98 117.15-8.02L117.15-8.02Q117.33-8.10 117.52-8.13Q117.72-8.16 117.92-8.16L117.92-8.16L117.94-8.16Q118.24-8.19 118.59-8.19Q118.94-8.19 119.23-8.19L119.23-8.19L122.09-8.24Q123.19-8.27 124.28-8.29Q125.37-8.32 126.48-8.32L126.48-8.32Q126.56-8.32 126.68-8.32Q126.80-8.31 126.93-8.30Q127.06-8.29 127.17-8.27Q127.29-8.24 127.35-8.20L127.35-8.20L127.33-8.22Q127.45-8.16 127.45-8.01L127.45-8.01Q127.45-7.89 127.39-7.79Q127.34-7.69 127.25-7.61Q127.16-7.54 127.05-7.49Q126.94-7.44 126.83-7.42L126.83-7.42Q126.60-7.37 126.36-7.35Q126.12-7.34 125.87-7.34L125.87-7.34Q125.81-7.34 125.63-7.33Q125.46-7.32 125.20-7.32Q124.94-7.31 124.63-7.30Q124.32-7.29 124.01-7.28Q123.70-7.27 123.40-7.25Q123.10-7.24 122.87-7.22Q122.63-7.21 122.48-7.19Q122.33-7.18 122.31-7.17L122.31-7.17Q122.27-7.12 122.24-7.06Q122.20-7.00 122.18-6.93L122.18-6.93Q122.04-6.58 121.94-6.20Q121.83-5.82 121.72-5.46L121.72-5.46Q121.46-4.56 121.20-3.69Q120.93-2.82 120.66-1.93L120.66-1.93Q120.60-1.76 120.38-1.10Q120.16-0.45 120.10-0.23Q120.03-0.02 119.95 0.17Q119.87 0.36 119.78 0.50L119.78 0.50Q119.72 0.59 119.62 0.66Q119.53 0.73 119.41 0.79Q119.30 0.84 119.19 0.87Q119.07 0.90 118.97 0.90L118.97 0.90Q118.74 0.90 118.88 0.24Q119.02-0.43 120.70-7.13ZM130.38-4.83Q130.73-5.85 130.87-6.29Q131.00-6.74 131.10-7.16L131.10-7.16Q130.65-7.14 130.20-7.09Q129.76-7.05 129.30-7.05L129.30-7.05Q129.21-7.05 129.09-7.08Q128.98-7.11 128.89-7.16Q128.79-7.22 128.75-7.31Q128.70-7.39 128.72-7.51L128.72-7.51Q128.77-7.72 129.05-7.87Q129.33-8.03 129.78-8.14Q130.22-8.26 130.78-8.33Q131.35-8.41 131.96-8.46Q132.56-8.50 133.17-8.53Q133.79-8.55 134.33-8.57Q134.87-8.58 135.29-8.59Q135.72-8.60 135.96-8.60L135.96-8.60Q136.02-8.60 136.11-8.60Q136.20-8.60 136.30-8.58Q136.39-8.57 136.48-8.54Q136.56-8.52 136.62-8.48L136.62-8.48Q136.71-8.40 136.71-8.29L136.71-8.29Q136.71-8.19 136.68-8.09Q136.65-7.99 136.61-7.91L136.61-7.91Q136.54-7.77 136.42-7.69Q136.29-7.61 136.15-7.56Q136.01-7.52 135.86-7.50Q135.71-7.48 135.57-7.48L135.57-7.48Q134.89-7.45 134.21-7.41Q133.52-7.37 132.85-7.29L132.85-7.29Q132.79-7.28 132.73-7.27Q132.66-7.26 132.62-7.21L132.62-7.21Q132.54-7.00 132.47-6.78Q132.40-6.56 132.33-6.35L132.33-6.35Q132.30-6.28 132.26-6.17Q132.22-6.05 132.17-5.93Q132.12-5.80 132.09-5.68Q132.05-5.56 132.05-5.48L132.05-5.48Q132.43-5.48 132.82-5.50Q133.21-5.51 133.59-5.51L133.59-5.51Q133.81-5.51 133.93-5.45Q134.06-5.38 134.11-5.29Q134.16-5.19 134.14-5.06Q134.13-4.94 134.08-4.83Q134.03-4.71 133.95-4.62Q133.87-4.52 133.78-4.48L133.78-4.48Q133.64-4.42 133.49-4.40L133.49-4.40Q133.03-4.35 132.57-4.32Q132.11-4.29 131.60-4.23L131.60-4.23Q131.56-4.17 131.50-4.01Q131.43-3.86 131.36-3.65Q131.29-3.44 131.20-3.20Q131.12-2.95 131.05-2.71Q130.98-2.46 130.93-2.23Q130.88-2.00 130.85-1.83Q130.82-1.65 130.83-1.54Q130.85-1.44 130.91-1.44L130.91-1.44Q131.08-1.44 131.25-1.46Q131.41-1.48 131.58-1.49L131.58-1.49Q132.21-1.56 132.85-1.63Q133.50-1.71 134.13-1.71L134.13-1.71Q134.38-1.71 134.53-1.65Q134.67-1.59 134.74-1.49Q134.80-1.40 134.79-1.28Q134.78-1.17 134.73-1.05Q134.67-0.94 134.58-0.84Q134.48-0.74 134.36-0.69L134.36-0.69Q134.24-0.63 134.10-0.61Q133.96-0.59 133.82-0.57L133.82-0.57Q132.97-0.47 132.12-0.35Q131.28-0.22 130.42-0.11L130.42-0.11Q130.29-0.08 130.19-0.08L130.19-0.08Q129.93-0.08 129.78-0.24Q129.63-0.41 129.57-0.68Q129.51-0.94 129.52-1.27Q129.53-1.59 129.57-1.91Q129.62-2.22 129.67-2.49Q129.73-2.75 129.77-2.90L129.77-2.90Q129.86-3.21 129.95-3.51Q130.04-3.81 130.38-4.83ZM147.40-3.33L147.40-3.33Q147.51-3.40 147.61-3.40L147.61-3.40Q147.77-3.40 147.83-3.23Q147.89-3.06 147.89-2.82L147.89-2.82Q147.89-2.63 147.83-2.43Q147.76-2.24 147.66-2.07Q147.56-1.89 147.43-1.73Q147.30-1.56 147.18-1.43L147.18-1.43Q146.85-1.10 146.46-0.83Q146.07-0.57 145.63-0.38Q145.20-0.20 144.74-0.10Q144.28 0 143.81 0L143.81 0Q143.14 0 142.68-0.21Q142.23-0.42 141.95-0.77Q141.67-1.12 141.56-1.58Q141.44-2.04 141.44-2.54Q141.45-3.05 141.55-3.56Q141.65-4.07 141.82-4.53L141.82-4.53Q142.00-5.02 142.28-5.53Q142.56-6.03 142.92-6.50Q143.27-6.97 143.70-7.38Q144.13-7.79 144.62-8.10Q145.11-8.40 145.65-8.58Q146.19-8.75 146.75-8.75L146.75-8.75Q147.06-8.75 147.34-8.67Q147.62-8.58 147.84-8.41Q148.05-8.23 148.18-7.98Q148.31-7.73 148.31-7.40L148.31-7.40Q148.31-7.04 148.22-6.70Q148.13-6.37 147.98-6.08Q147.84-5.79 147.64-5.56Q147.45-5.33 147.23-5.17Q147.02-5.00 146.79-4.91Q146.57-4.82 146.37-4.82L146.37-4.82Q146.19-4.82 146.04-4.89Q145.89-4.97 145.78-5.14Q145.68-5.30 145.62-5.56Q145.57-5.82 145.59-6.19L145.59-6.19Q145.61-6.40 145.71-6.52Q145.81-6.64 145.95-6.71Q146.10-6.79 146.26-6.83Q146.43-6.88 146.56-6.95Q146.70-7.01 146.79-7.12Q146.88-7.22 146.88-7.40L146.88-7.40Q146.88-7.46 146.87-7.49L146.87-7.49Q146.82-7.52 146.79-7.52Q146.75-7.52 146.70-7.52L146.70-7.52Q146.33-7.52 145.94-7.34Q145.55-7.16 145.18-6.85Q144.81-6.53 144.47-6.12Q144.13-5.70 143.84-5.23Q143.55-4.76 143.33-4.27Q143.12-3.77 142.99-3.30Q142.86-2.83 142.83-2.41Q142.81-2.00 142.92-1.68Q143.03-1.37 143.29-1.19Q143.54-1.01 143.96-1.01L143.96-1.01Q144.59-1.01 145.05-1.16Q145.51-1.31 145.85-1.54Q146.19-1.78 146.42-2.05Q146.66-2.33 146.83-2.59Q147.01-2.85 147.14-3.06Q147.27-3.26 147.40-3.33ZM155.52-0.60L155.52-0.60Q155.41-0.54 155.29-0.51Q155.18-0.47 155.06-0.47L155.06-0.47Q154.86-0.47 154.75-0.58Q154.65-0.70 154.65-0.88L154.65-0.88Q154.65-1.04 154.70-1.26Q154.75-1.49 154.83-1.76Q154.91-2.03 155.01-2.33Q155.10-2.63 155.19-2.92Q155.29-3.21 155.36-3.47Q155.44-3.74 155.48-3.95L155.48-3.95Q155.31-3.93 155.15-3.91Q154.99-3.88 154.82-3.88L154.82-3.88Q154.71-3.88 154.59-3.91Q154.47-3.94 154.38-4.01Q154.29-4.07 154.23-4.17Q154.17-4.27 154.17-4.40L154.17-4.40Q154.17-4.57 154.29-4.73Q154.41-4.90 154.54-5.00L154.54-5.00Q154.65-5.08 154.81-5.12Q154.97-5.17 155.14-5.19Q155.32-5.21 155.49-5.22Q155.66-5.23 155.80-5.24L155.80-5.24Q155.92-5.56 155.99-5.89Q156.06-6.23 156.12-6.57Q156.18-6.90 156.24-7.24Q156.30-7.58 156.40-7.90L156.40-7.90Q156.53-8.30 156.96-8.30L156.96-8.30Q157.10-8.30 157.27-8.24Q157.44-8.17 157.58-8.06Q157.72-7.95 157.81-7.81Q157.90-7.66 157.90-7.51L157.90-7.51Q157.90-7.30 157.82-6.99Q157.73-6.67 157.62-6.35Q157.52-6.04 157.44-5.76Q157.35-5.48 157.37-5.35L157.37-5.35L157.48-5.35Q157.67-5.35 157.90-5.37Q158.13-5.38 158.35-5.41Q158.57-5.43 158.75-5.45Q158.94-5.47 159.02-5.47L159.02-5.47Q159.12-5.48 159.23-5.48Q159.33-5.48 159.43-5.51L159.43-5.51Q159.46-5.60 159.47-5.67Q159.49-5.75 159.50-5.84L159.50-5.84Q159.71-6.63 159.95-7.40Q160.18-8.18 160.41-8.96L160.41-8.96Q160.45-9.12 160.50-9.29Q160.55-9.46 160.63-9.59Q160.71-9.72 160.83-9.81Q160.96-9.89 161.17-9.89L161.17-9.89Q161.29-9.89 161.43-9.82Q161.58-9.76 161.70-9.65Q161.83-9.54 161.92-9.42Q162.01-9.29 162.01-9.16L162.01-9.16Q162.01-9.03 161.92-8.69Q161.84-8.36 161.70-7.87Q161.56-7.39 161.37-6.79Q161.19-6.20 160.97-5.55Q160.76-4.91 160.54-4.25Q160.31-3.59 160.10-2.96Q159.88-2.34 159.69-1.80Q159.50-1.25 159.35-0.85Q159.21-0.44 159.12-0.20Q159.03 0.04 159.02 0.05L159.02 0.05Q158.95 0.12 158.85 0.19Q158.75 0.26 158.63 0.32Q158.52 0.38 158.40 0.42Q158.29 0.45 158.19 0.45L158.19 0.45Q158.00 0.45 157.88 0.33Q157.76 0.22 157.80 0.05L157.80 0.05Q157.97-0.54 158.12-1.10Q158.28-1.65 158.43-2.18Q158.58-2.72 158.74-3.25Q158.89-3.77 159.06-4.32L159.06-4.32Q158.88-4.29 158.59-4.28Q158.30-4.26 158.00-4.24Q157.71-4.21 157.43-4.18Q157.16-4.14 157.00-4.08L157.00-4.08Q156.97-4.05 156.96-4.03Q156.96-4.00 156.94-3.96L156.94-3.96Q156.88-3.73 156.81-3.42Q156.74-3.11 156.66-2.77Q156.57-2.43 156.47-2.09Q156.36-1.75 156.22-1.45Q156.08-1.15 155.91-0.92Q155.74-0.70 155.52-0.60ZM169.61-8.60L169.61-8.60Q169.76-8.60 169.92-8.54Q170.07-8.48 170.19-8.37Q170.31-8.26 170.39-8.12Q170.47-7.97 170.44-7.55Q170.42-7.13 170.48-6.38Q170.54-5.64 170.81-4.27Q171.08-2.89 171.40-1.73L171.40-1.73Q172.03-3.88 172.43-5.38Q172.83-6.88 173.21-8.39L173.21-8.39Q173.28-8.63 173.33-8.86Q173.38-9.09 173.47-9.31L173.47-9.31Q173.51-9.39 173.55-9.47Q173.59-9.55 173.67-9.60L173.67-9.60L173.69-9.62Q173.75-9.66 173.82-9.67Q173.89-9.67 173.96-9.67L173.96-9.67L174.01-9.67Q174.23-9.54 174.29-9.23Q174.35-8.91 174.19-7.55Q174.03-6.19 173.53-4.25Q173.03-2.31 172.52-0.36L172.52-0.36Q172.44-0.04 172.23 0.18Q172.01 0.39 171.72 0.39L171.72 0.39Q171.50 0.39 171.24 0.23Q170.99 0.08 170.72-0.30L170.72-0.30Q170.68-0.37 170.66-0.45Q170.64-0.54 170.62-0.62L170.62-0.62Q170.38-1.65 170.16-2.70Q169.94-3.74 169.64-4.77L169.64-4.77Q169.38-3.83 169.13-2.89Q168.88-1.96 168.63-1.02L168.63-1.02Q168.62-0.97 168.58-0.89Q168.55-0.81 168.51-0.73Q168.46-0.64 168.42-0.57Q168.38-0.50 168.33-0.47L168.33-0.47Q168.09-0.18 167.80-0.32Q167.52-0.46 167.69-1.71Q167.86-2.96 168.12-4.29Q168.39-5.62 168.69-6.96L168.69-6.96Q168.71-7.10 168.74-7.27Q168.76-7.45 168.78-7.62Q168.81-7.79 168.85-7.95Q168.88-8.12 168.95-8.24L168.95-8.24Q169.05-8.43 169.22-8.51Q169.40-8.60 169.61-8.60ZM182.00-0.19L182.00-0.19Q181.18-0.32 180.73-1.23Q180.29-2.14 180.34-3.26Q180.39-4.38 180.66-4.86L180.66-4.86Q180.57-5.21 180.65-5.94Q180.73-6.67 181.50-7.52Q182.27-8.38 183.70-8.48L183.70-8.48Q184.83-8.40 185.23-8.06L185.23-8.06Q185.74-7.74 186.05-7.22Q186.36-6.71 186.48-6.08Q186.60-5.46 186.55-4.76Q186.50-4.07 186.29-3.39Q186.08-2.72 185.71-2.10Q185.34-1.49 184.84-1.02Q184.34-0.55 183.55-0.28Q182.77-0.01 182.00-0.19ZM181.86-5.54L181.86-5.54Q181.86-5.39 181.94-5.19Q182.01-4.99 182.13-4.80Q182.25-4.62 182.41-4.50Q182.57-4.37 182.74-4.37L182.74-4.37Q182.87-4.37 182.96-4.42Q183.06-4.46 183.15-4.46L183.15-4.46Q183.21-4.46 183.27-4.42Q183.32-4.38 183.38-4.27L183.38-4.27Q183.50-4.04 183.43-3.88Q183.36-3.73 183.18-3.62Q183.01-3.52 182.75-3.47Q182.50-3.43 182.23-3.43L182.23-3.43Q181.97-3.43 181.72-3.50Q181.48-3.58 181.27-3.71L181.27-3.71Q181.22-3.52 181.19-3.25Q181.16-2.98 181.17-2.70Q181.18-2.41 181.24-2.14Q181.30-1.87 181.42-1.66Q181.55-1.44 181.74-1.31Q181.94-1.18 182.23-1.18L182.23-1.18Q182.45-1.18 182.66-1.23Q182.88-1.29 183.08-1.39Q183.28-1.48 183.46-1.61Q183.64-1.74 183.81-1.88L183.81-1.88Q184.10-2.13 184.34-2.50Q184.58-2.87 184.77-3.29Q184.95-3.72 185.07-4.18Q185.18-4.65 185.21-5.09Q185.24-5.54 185.17-5.94Q185.09-6.34 184.90-6.64Q184.72-6.94 184.40-7.12Q184.09-7.30 183.63-7.30L183.63-7.30Q183.26-7.30 182.94-7.16Q182.62-7.03 182.38-6.79Q182.14-6.54 182.00-6.22Q181.86-5.90 181.86-5.54ZM193.76 0.41L193.76 0.41Q193.64 0.41 193.49 0.38Q193.35 0.35 193.22 0.28Q193.09 0.21 193.00 0.10Q192.91-0.01 192.91-0.16L192.91-0.16Q192.91-0.23 192.94-0.29Q192.97-0.35 193.02-0.40Q193.07-0.45 193.12-0.50Q193.17-0.54 193.22-0.59L193.22-0.59Q193.32-0.69 193.38-0.82Q193.45-0.96 193.49-1.09L193.49-1.09Q193.78-1.90 194.02-2.74Q194.27-3.57 194.50-4.42Q194.73-5.26 194.94-6.11Q195.16-6.96 195.38-7.79L195.38-7.79Q195.41-7.92 195.43-8.09Q195.46-8.26 195.50-8.40Q195.54-8.54 195.61-8.64Q195.69-8.74 195.81-8.74L195.81-8.74Q195.86-8.74 195.96-8.71L195.96-8.71Q196.15-8.64 196.32-8.57Q196.49-8.49 196.63-8.40Q196.76-8.31 196.85-8.20Q196.93-8.10 196.93-7.98L196.93-7.98Q196.93-7.91 196.90-7.80Q196.88-7.69 196.85-7.56Q196.81-7.44 196.78-7.33Q196.74-7.21 196.72-7.14L196.72-7.14Q196.58-6.67 196.42-6.13Q196.25-5.59 196.09-5.02Q195.93-4.46 195.76-3.89Q195.59-3.33 195.44-2.80Q195.29-2.27 195.15-1.81Q195.01-1.35 194.91-0.99L194.91-0.99Q195.37-0.99 195.83-1.04Q196.28-1.08 196.74-1.15Q197.20-1.22 197.66-1.29Q198.13-1.35 198.08-0.79Q198.02-0.23 197.69-0.16Q197.36-0.09 196.97-0.03Q196.59 0.04 196.19 0.11Q195.80 0.17 195.42 0.23Q195.04 0.28 194.71 0.32Q194.38 0.36 194.14 0.39Q193.89 0.41 193.76 0.41ZM205.59-0.19L205.59-0.19Q204.76-0.32 204.32-1.23Q203.87-2.14 203.92-3.26Q203.98-4.38 204.24-4.86L204.24-4.86Q204.16-5.21 204.24-5.94Q204.32-6.67 205.09-7.52Q205.86-8.38 207.29-8.48L207.29-8.48Q208.42-8.40 208.82-8.06L208.82-8.06Q209.33-7.74 209.63-7.22Q209.94-6.71 210.06-6.08Q210.19-5.46 210.14-4.76Q210.09-4.07 209.87-3.39Q209.66-2.72 209.29-2.10Q208.93-1.49 208.43-1.02Q207.93-0.55 207.14-0.28Q206.35-0.01 205.59-0.19ZM205.45-5.54L205.45-5.54Q205.45-5.39 205.52-5.19Q205.59-4.99 205.71-4.80Q205.83-4.62 205.99-4.50Q206.15-4.37 206.33-4.37L206.33-4.37Q206.45-4.37 206.55-4.42Q206.65-4.46 206.74-4.46L206.74-4.46Q206.79-4.46 206.85-4.42Q206.91-4.38 206.96-4.27L206.96-4.27Q207.08-4.04 207.01-3.88Q206.95-3.73 206.77-3.62Q206.59-3.52 206.33-3.47Q206.08-3.43 205.81-3.43L205.81-3.43Q205.55-3.43 205.31-3.50Q205.06-3.58 204.85-3.71L204.85-3.71Q204.80-3.52 204.77-3.25Q204.74-2.98 204.76-2.70Q204.77-2.41 204.83-2.14Q204.88-1.87 205.01-1.66Q205.13-1.44 205.33-1.31Q205.52-1.18 205.81-1.18L205.81-1.18Q206.03-1.18 206.25-1.23Q206.46-1.29 206.66-1.39Q206.86-1.48 207.04-1.61Q207.23-1.74 207.39-1.88L207.39-1.88Q207.68-2.13 207.92-2.50Q208.17-2.87 208.35-3.29Q208.54-3.72 208.65-4.18Q208.76-4.65 208.79-5.09Q208.82-5.54 208.75-5.94Q208.68-6.34 208.49-6.64Q208.30-6.94 207.99-7.12Q207.67-7.30 207.22-7.30L207.22-7.30Q206.85-7.30 206.53-7.16Q206.20-7.03 205.96-6.79Q205.72-6.54 205.58-6.22Q205.45-5.90 205.45-5.54ZM219.83-3.87L219.83-3.87Q220.05-3.91 220.31-3.93Q220.58-3.96 220.84-3.97Q221.11-3.99 221.36-4.00Q221.61-4.01 221.82-4.01Q222.02-4.02 222.15-4.02Q222.28-4.03 222.29-4.03L222.29-4.03Q222.66-4.03 222.86-3.85Q223.07-3.68 223.12-3.40Q223.17-3.11 223.07-2.75Q222.97-2.39 222.74-2.01Q222.50-1.63 222.14-1.27Q221.78-0.91 221.30-0.63Q220.82-0.35 220.23-0.17Q219.64 0 218.95 0L218.95 0Q218.37 0 217.92-0.18Q217.46-0.35 217.15-0.68Q216.83-1.01 216.67-1.48Q216.50-1.95 216.50-2.53L216.50-2.53Q216.50-3.21 216.70-3.94Q216.91-4.68 217.27-5.38Q217.64-6.08 218.15-6.72Q218.65-7.35 219.26-7.83Q219.86-8.31 220.54-8.59Q221.22-8.87 221.94-8.87L221.94-8.87Q222.25-8.87 222.53-8.78Q222.81-8.70 223.03-8.52Q223.25-8.35 223.38-8.09Q223.51-7.84 223.51-7.51L223.51-7.51Q223.51-7.27 223.44-7.00Q223.38-6.74 223.26-6.48Q223.14-6.22 222.98-5.99Q222.81-5.75 222.61-5.57Q222.40-5.38 222.17-5.28Q221.94-5.17 221.68-5.17L221.68-5.17L221.62-5.17Q221.50-5.17 221.32-5.21Q221.13-5.25 220.97-5.37Q220.80-5.48 220.71-5.71Q220.61-5.94 220.67-6.31L220.67-6.31Q220.68-6.38 220.80-6.48Q220.93-6.58 221.10-6.70Q221.27-6.82 221.45-6.95Q221.63-7.07 221.76-7.19Q221.89-7.31 221.93-7.41Q221.97-7.51 221.85-7.56L221.85-7.56Q221.65-7.65 221.46-7.65L221.46-7.65Q221.16-7.65 220.85-7.49Q220.54-7.33 220.23-7.06Q219.93-6.79 219.64-6.42Q219.35-6.06 219.10-5.65Q218.84-5.24 218.63-4.80Q218.42-4.36 218.27-3.94Q218.12-3.52 218.03-3.14Q217.95-2.76 217.95-2.46L217.95-2.46Q217.95-2.12 218.06-1.88Q218.17-1.64 218.36-1.49Q218.55-1.33 218.81-1.26Q219.06-1.19 219.34-1.19L219.34-1.19Q219.72-1.19 220.11-1.31Q220.50-1.42 220.82-1.63Q221.14-1.84 221.35-2.12Q221.55-2.41 221.56-2.74L221.56-2.74Q221.55-2.74 221.47-2.73Q221.38-2.72 221.28-2.72Q221.17-2.71 221.08-2.70Q220.99-2.69 220.96-2.69L220.96-2.69Q220.73-2.67 220.58-2.64Q220.44-2.61 220.30-2.59Q220.17-2.57 220.02-2.55Q219.87-2.54 219.63-2.54L219.63-2.54Q219.39-2.54 219.29-2.67Q219.18-2.81 219.18-2.99Q219.17-3.18 219.24-3.37Q219.32-3.56 219.43-3.69L219.43-3.69Q219.52-3.78 219.62-3.81Q219.71-3.85 219.83-3.87ZM230.71-0.42L230.71-0.42Q230.67-0.33 230.58-0.25Q230.48-0.18 230.37-0.12Q230.26-0.06 230.14-0.03Q230.03 0 229.94 0L229.94 0Q229.85-0.39 230.12-1.52Q230.39-2.65 230.70-3.95Q231.02-5.25 231.39-6.51L231.39-6.51Q231.43-6.67 231.48-6.81Q231.53-6.96 231.56-7.13L231.56-7.13Q231.43-7.08 231.39-7.10Q231.34-7.11 231.16-7.15Q230.97-7.18 230.86-7.51Q230.75-7.85 230.93-7.93Q231.11-8.01 231.31-8.10Q231.51-8.19 231.70-8.27Q231.89-8.36 232.32-8.53Q232.75-8.71 232.79-8.73L232.79-8.73Q232.85-8.75 232.89-8.75Q232.94-8.75 232.99-8.75L232.99-8.75Q233.08-8.75 233.20-8.71Q233.32-8.67 233.43-8.59Q233.53-8.52 233.61-8.43Q233.69-8.33 233.65-8.20Q233.61-8.07 233.32-7.90Q233.02-7.72 233.00-7.65L233.00-7.65Q232.62-6.42 232.24-5.21Q231.87-4.01 231.49-2.78L231.49-2.78Q230.84-0.76 230.80-0.64Q230.76-0.53 230.71-0.42ZM240.62-4.83Q240.97-5.85 241.10-6.29Q241.24-6.74 241.34-7.16L241.34-7.16Q240.89-7.14 240.44-7.09Q239.99-7.05 239.54-7.05L239.54-7.05Q239.44-7.05 239.33-7.08Q239.21-7.11 239.12-7.16Q239.03-7.22 238.98-7.31Q238.93-7.39 238.96-7.51L238.96-7.51Q239.00-7.72 239.29-7.87Q239.57-8.03 240.01-8.14Q240.46-8.26 241.02-8.33Q241.59-8.41 242.19-8.46Q242.80-8.50 243.41-8.53Q244.03-8.55 244.56-8.57Q245.10-8.58 245.53-8.59Q245.96-8.60 246.19-8.60L246.19-8.60Q246.26-8.60 246.35-8.60Q246.44-8.60 246.54-8.58Q246.63-8.57 246.72-8.54Q246.80-8.52 246.86-8.48L246.86-8.48Q246.95-8.40 246.95-8.29L246.95-8.29Q246.95-8.19 246.92-8.09Q246.88-7.99 246.84-7.91L246.84-7.91Q246.77-7.77 246.65-7.69Q246.53-7.61 246.39-7.56Q246.25-7.52 246.10-7.50Q245.95-7.48 245.81-7.48L245.81-7.48Q245.13-7.45 244.45-7.41Q243.76-7.37 243.09-7.29L243.09-7.29Q243.03-7.28 242.96-7.27Q242.90-7.26 242.86-7.21L242.86-7.21Q242.78-7.00 242.71-6.78Q242.64-6.56 242.57-6.35L242.57-6.35Q242.54-6.28 242.50-6.17Q242.46-6.05 242.41-5.93Q242.36-5.80 242.33-5.68Q242.29-5.56 242.29-5.48L242.29-5.48Q242.67-5.48 243.06-5.50Q243.45-5.51 243.83-5.51L243.83-5.51Q244.05-5.51 244.17-5.45Q244.29-5.38 244.34-5.29Q244.39-5.19 244.38-5.06Q244.37-4.94 244.32-4.83Q244.27-4.71 244.19-4.62Q244.11-4.52 244.01-4.48L244.01-4.48Q243.88-4.42 243.73-4.40L243.73-4.40Q243.27-4.35 242.81-4.32Q242.34-4.29 241.83-4.23L241.83-4.23Q241.80-4.17 241.73-4.01Q241.67-3.86 241.60-3.65Q241.52-3.44 241.44-3.20Q241.36-2.95 241.29-2.71Q241.22-2.46 241.17-2.23Q241.11-2.00 241.09-1.83Q241.06-1.65 241.07-1.54Q241.08-1.44 241.15-1.44L241.15-1.44Q241.32-1.44 241.49-1.46Q241.65-1.48 241.82-1.49L241.82-1.49Q242.44-1.56 243.09-1.63Q243.74-1.71 244.37-1.71L244.37-1.71Q244.62-1.71 244.76-1.65Q244.91-1.59 244.97-1.49Q245.04-1.40 245.03-1.28Q245.02-1.17 244.97-1.05Q244.91-0.94 244.81-0.84Q244.72-0.74 244.60-0.69L244.60-0.69Q244.48-0.63 244.34-0.61Q244.20-0.59 244.06-0.57L244.06-0.57Q243.21-0.47 242.36-0.35Q241.52-0.22 240.66-0.11L240.66-0.11Q240.53-0.08 240.43-0.08L240.43-0.08Q240.16-0.08 240.02-0.24Q239.87-0.41 239.81-0.68Q239.75-0.94 239.76-1.27Q239.77-1.59 239.81-1.91Q239.85-2.22 239.91-2.49Q239.97-2.75 240.01-2.90L240.01-2.90Q240.09-3.21 240.18-3.51Q240.28-3.81 240.62-4.83ZM256.20-4.84L256.20-4.84Q255.99-4.92 255.77-4.97Q255.56-5.02 255.34-5.08L255.34-5.08Q255.04-5.16 254.68-5.31Q254.33-5.46 254.02-5.67Q253.72-5.88 253.51-6.17Q253.31-6.46 253.31-6.83L253.31-6.83Q253.31-7.17 253.47-7.43Q253.63-7.70 253.90-7.90Q254.16-8.11 254.50-8.25Q254.84-8.40 255.20-8.49Q255.55-8.58 255.88-8.62Q256.22-8.67 256.48-8.67L256.48-8.67L256.64-8.67Q256.82-8.67 257.04-8.65Q257.26-8.63 257.49-8.58Q257.72-8.53 257.94-8.44Q258.16-8.36 258.34-8.23Q258.52-8.10 258.62-7.93Q258.73-7.75 258.73-7.52L258.73-7.52Q258.73-7.32 258.64-7.13Q258.55-6.94 258.41-6.78Q258.28-6.62 258.11-6.48Q257.94-6.35 257.78-6.24L257.78-6.24Q257.63-6.13 257.47-6.03Q257.30-5.93 257.11-5.93L257.11-5.93Q256.99-5.93 256.91-5.97Q256.83-6.01 256.78-6.08Q256.72-6.14 256.68-6.23Q256.65-6.31 256.61-6.40L256.61-6.40Q256.59-6.47 256.57-6.51Q256.55-6.56 256.55-6.63L256.55-6.63Q256.55-6.70 256.66-6.77Q256.78-6.84 256.95-6.92Q257.12-7.00 257.31-7.09Q257.50-7.18 257.64-7.28Q257.78-7.39 257.84-7.51Q257.91-7.63 257.82-7.73Q257.73-7.82 257.60-7.84Q257.47-7.86 257.32-7.86L257.32-7.86Q257.01-7.86 256.63-7.79Q256.25-7.72 255.89-7.62Q255.53-7.51 255.23-7.38Q254.93-7.25 254.79-7.13L254.79-7.13Q254.74-7.08 254.66-7.00Q254.59-6.91 254.59-6.83L254.59-6.83Q254.59-6.71 254.71-6.60Q254.83-6.49 254.99-6.40Q255.16-6.32 255.33-6.25Q255.50-6.19 255.59-6.16L255.59-6.16Q255.80-6.09 256.02-6.04Q256.23-5.98 256.44-5.92Q256.65-5.86 256.86-5.79Q257.07-5.72 257.27-5.62L257.27-5.62Q257.62-5.45 257.94-5.23Q258.26-5.00 258.51-4.72Q258.75-4.44 258.90-4.09Q259.04-3.74 259.04-3.32L259.04-3.32Q259.04-2.80 258.81-2.24Q258.58-1.69 258.16-1.16Q257.73-0.63 257.14-0.15Q256.55 0.32 255.83 0.68Q255.11 1.04 254.28 1.25Q253.45 1.45 252.56 1.45L252.56 1.45Q252.46 1.45 252.37 1.45Q252.28 1.45 252.19 1.44L252.19 1.44Q251.45 1.41 250.88 1.11Q250.31 0.82 249.93 0.37Q249.56-0.09 249.41-0.65Q249.25-1.22 249.35-1.81Q249.45-2.40 249.82-2.96Q250.20-3.53 250.87-3.97L250.87-3.97Q251.16-4.17 251.54-4.30Q251.92-4.44 252.34-4.53Q252.75-4.62 253.16-4.67Q253.58-4.71 253.92-4.71L253.92-4.71Q254.18-4.71 254.48-4.69Q254.78-4.67 255.08-4.61Q255.38-4.54 255.63-4.42Q255.89-4.30 256.07-4.11L256.07-4.11Q256.13-4.04 256.19-3.95Q256.25-3.86 256.25-3.76L256.25-3.76Q256.25-3.69 256.21-3.64Q256.17-3.60 256.12-3.57Q256.06-3.53 255.99-3.52Q255.93-3.51 255.87-3.51L255.87-3.51Q255.60-3.51 255.32-3.60Q255.05-3.69 254.79-3.76L254.79-3.76Q254.40-3.86 253.99-3.86L253.99-3.86Q253.57-3.86 253.20-3.72Q252.82-3.58 252.54-3.33Q252.26-3.07 252.10-2.71Q251.94-2.36 251.94-1.92L251.94-1.92Q251.94-1.72 251.96-1.55Q251.99-1.38 252.07-1.25Q252.15-1.11 252.27-1.01Q252.40-0.91 252.60-0.83L252.60-0.83Q252.81-0.74 253.03-0.71Q253.24-0.69 253.47-0.69L253.47-0.69Q253.81-0.69 254.26-0.77Q254.71-0.86 255.19-1.02Q255.67-1.18 256.13-1.42Q256.59-1.65 256.96-1.95Q257.32-2.24 257.54-2.60Q257.77-2.95 257.77-3.35L257.77-3.35Q257.77-3.65 257.61-3.89Q257.46-4.13 257.23-4.31Q257.00-4.49 256.72-4.63Q256.45-4.76 256.20-4.84Z" transform="translate(-0.049733231707317076, 9.890625)"></path></g></g></g></g></g></g><mask id="4444c4f2-36af-4448-ab68-c2aa63340ce6"><g fill="white"><g><rect fill-opacity="1" stroke-width="2" x="0" y="0" width="138" height="136.16047202296969" class="image-rect"></rect> <svg x="0" y="0" width="138" height="136.16047202296969" class="image-svg-svg primary" style="overflow: visible;" filter="url(#colorsf830247789)"><svg xmlns="http://www.w3.org/2000/svg" xmlns:xlink="http://www.w3.org/1999/xlink" version="1.1" x="0px" y="0px" viewBox="4.999999046325684 5.600000381469727 89.99999237060547 88.79999542236328" enable-background="new 0 0 100 100" xml:space="preserve"><g><circle cx="38.1" cy="24.5" r="18.9"></circle><circle cx="84.7" cy="58.2" r="10.3"></circle><circle cx="76.5" cy="25.9" r="14.4"></circle><circle cx="62.9" cy="42.5" r="4.5"></circle><circle cx="68.2" cy="54.7" r="4.2"></circle><circle cx="48.1" cy="58.4" r="11.4"></circle><circle cx="66.6" cy="80.7" r="12.6"></circle><circle cx="34.4" cy="83.1" r="11.3"></circle><circle cx="19.3" cy="56.1" r="14.3"></circle></g></svg></svg> <defs> </defs></g></g> <g transform="translate(97.17720031738281,88.50048065185547)"><rect fill="black" fill-opacity="1" x="-3.5" y="-3.5" width="178.64559936523438" height="27.95967674255371"></rect><rect fill="black" fill-opacity="1" x="-3.5" y="-3.5" transform="translate(-68.26184337513405,22.95967674255371)" width="271.1698303222656" height="19.19920063018799"></rect></g><g transform="translate(97.17720031738281,88.50048065185547)" fill="black"><g fill-rule="" class="tp-name" transform="translate(0,0)"><g transform="scale(0.7400781249999998)"><g><g transform="translate(0, 0)"><path d="M27.80114083060518-23.4969C28.24412347264049-24.0262 28.225087523978992-24.736400000000003 27.718936332940434-25.486800000000002 26.67499950142341-27.0345 23.887311745357316-28.320900000000005 21.577311745357314-28.320900000000005 20.457311745357316-28.320900000000005 19.60519527024815-28.012700000000002 19.176731835275696-27.4767L4.592341829504266-9.648000000000001-6.091063667059563-25.486800000000002C-7.135000498576586-27.0345-9.922688254642686-28.320900000000005-12.232688254642685-28.320900000000005-14.542688254642687-28.320900000000005-15.595000498576585-27.0345-14.551063667059562-25.486800000000002L0.7283754124168782-2.8341000000000003C1.7723122439339023-1.2864 4.56 0 6.87 0 7.93 0 8.86923171748623-0.268 9.275099117144467-0.8375L16.91532447153957-10.1773 37.14509911714447-0.8375C38.31923171748623-0.268 39.63 0 40.68 0 42.99 0 44.0423122439339-1.2864 42.99837541241688-2.8341000000000003 42.52385867081823-3.5376000000000003 41.613188272716826-4.294700000000001 40.39617091475213-4.824000000000001L20.17091547621008-14.1571ZM94.90893633294043-25.486800000000002C93.86499950142341-27.0345 91.08731174535731-28.320900000000005 88.77731174535731-28.320900000000005 86.45731174535732-28.320900000000005 85.41499950142342-27.0345 86.45893633294044-25.486800000000002L97.14234182950428-9.648000000000001 79.98063908122235-17.5674C78.79198727381775-18.1436 77.49573819836682-18.4049 76.43573819836682-18.4049 75.38573819836682-18.4049 74.44198727381776-18.1436 74.03063908122235-17.5674L67.55234182950427-9.648000000000001 56.868936332940436-25.486800000000002C55.82499950142342-27.0345 53.04731174535732-28.320900000000005 50.72731174535731-28.320900000000005 48.41731174535731-28.320900000000005 47.37499950142342-27.0345 48.41893633294043-25.486800000000002L63.69837541241688-2.8341000000000003C64.7423122439339-1.2864 67.52 0 69.83 0 70.96 0 71.80211647510917-0.30820000000000003 72.24509911714446-0.8375L81.03177178127943-11.591000000000001 104.33509911714447-0.8375C105.49211647510917-0.30820000000000003 106.75 0 107.88 0 110.19 0 111.23231224393389-1.2864 110.18837541241687-2.8341000000000003ZM136.91127003189658-5.6615L132.6812700318966-5.6615C130.3712700318966-5.6615 129.31443858089986-4.3818 130.35837541241688-2.8341000000000003 131.40231224393392-1.2864 134.19 0 136.5 0L153.41 0C155.72 0 156.7623122439339-1.2864 155.71837541241686-2.8341000000000003 154.67443858089985-4.3818 151.9012700318966-5.6615 149.59127003189658-5.6615L145.3612700318966-5.6615 133.90056092052356-22.652700000000003 138.13056092052355-22.652700000000003C140.44056092052355-22.652700000000003 141.48287316445746-23.9391 140.43893633294044-25.486800000000002 139.3949995014234-27.0345 136.6173117453573-28.320900000000005 134.3073117453573-28.320900000000005L117.39731174535731-28.320900000000005C115.08731174535731-28.320900000000005 114.03499950142343-27.0345 115.07893633294044-25.486800000000002 116.12287316445747-23.9391 118.91056092052355-22.652700000000003 121.22056092052355-22.652700000000003L125.45056092052354-22.652700000000003ZM188.81056092052356-22.652700000000003C188.81056092052356-22.652700000000003 174.21617091475213-4.824000000000001 174.21617091475213-4.824000000000001 173.78318827271684-4.294700000000001 173.8022242213783-3.5845 174.30837541241686-2.8341000000000003 175.3523122439339-1.2864 178.13 0 180.44 0L214.26 0C216.57 0 217.6123122439339-1.2864 216.56837541241686-2.8341000000000003 215.52443858089984-4.3818 212.75127003189658-5.6615 210.44127003189658-5.6615L186.7912700318966-5.6615C186.7912700318966-5.6615 201.38114083060518-23.4969 201.38114083060518-23.4969 201.88412347264048-24.0262 201.7679722816019-24.7766 201.28893633294044-25.486800000000002 200.2449995014234-27.0345 197.4673117453573-28.320900000000005 195.1573117453573-28.320900000000005L161.3373117453573-28.320900000000005C159.0273117453573-28.320900000000005 157.9849995014234-27.0345 159.02893633294045-25.486800000000002 160.07287316445746-23.9391 162.85056092052355-22.652700000000003 165.16056092052355-22.652700000000003Z" transform="translate(14.954998016357422, 28.320899963378906)"></path></g><g transform="translate(0, 0)"><path d="M27.80114083060518-23.4969C28.24412347264049-24.0262 28.225087523978992-24.736400000000003 27.718936332940434-25.486800000000002 26.67499950142341-27.0345 23.887311745357316-28.320900000000005 21.577311745357314-28.320900000000005 20.457311745357316-28.320900000000005 19.60519527024815-28.012700000000002 19.176731835275696-27.4767L4.592341829504266-9.648000000000001-6.091063667059563-25.486800000000002C-7.135000498576586-27.0345-9.922688254642686-28.320900000000005-12.232688254642685-28.320900000000005-14.542688254642687-28.320900000000005-15.595000498576585-27.0345-14.551063667059562-25.486800000000002L0.7283754124168782-2.8341000000000003C1.7723122439339023-1.2864 4.56 0 6.87 0 7.93 0 8.86923171748623-0.268 9.275099117144467-0.8375L16.91532447153957-10.1773 37.14509911714447-0.8375C38.31923171748623-0.268 39.63 0 40.68 0 42.99 0 44.0423122439339-1.2864 42.99837541241688-2.8341000000000003 42.52385867081823-3.5376000000000003 41.613188272716826-4.294700000000001 40.39617091475213-4.824000000000001L20.17091547621008-14.1571ZM94.90893633294043-25.486800000000002C93.86499950142341-27.0345 91.08731174535731-28.320900000000005 88.77731174535731-28.320900000000005 86.45731174535732-28.320900000000005 85.41499950142342-27.0345 86.45893633294044-25.486800000000002L97.14234182950428-9.648000000000001 79.98063908122235-17.5674C78.79198727381775-18.1436 77.49573819836682-18.4049 76.43573819836682-18.4049 75.38573819836682-18.4049 74.44198727381776-18.1436 74.03063908122235-17.5674L67.55234182950427-9.648000000000001 56.868936332940436-25.486800000000002C55.82499950142342-27.0345 53.04731174535732-28.320900000000005 50.72731174535731-28.320900000000005 48.41731174535731-28.320900000000005 47.37499950142342-27.0345 48.41893633294043-25.486800000000002L63.69837541241688-2.8341000000000003C64.7423122439339-1.2864 67.52 0 69.83 0 70.96 0 71.80211647510917-0.30820000000000003 72.24509911714446-0.8375L81.03177178127943-11.591000000000001 104.33509911714447-0.8375C105.49211647510917-0.30820000000000003 106.75 0 107.88 0 110.19 0 111.23231224393389-1.2864 110.18837541241687-2.8341000000000003ZM136.91127003189658-5.6615L132.6812700318966-5.6615C130.3712700318966-5.6615 129.31443858089986-4.3818 130.35837541241688-2.8341000000000003 131.40231224393392-1.2864 134.19 0 136.5 0L153.41 0C155.72 0 156.7623122439339-1.2864 155.71837541241686-2.8341000000000003 154.67443858089985-4.3818 151.9012700318966-5.6615 149.59127003189658-5.6615L145.3612700318966-5.6615 133.90056092052356-22.652700000000003 138.13056092052355-22.652700000000003C140.44056092052355-22.652700000000003 141.48287316445746-23.9391 140.43893633294044-25.486800000000002 139.3949995014234-27.0345 136.6173117453573-28.320900000000005 134.3073117453573-28.320900000000005L117.39731174535731-28.320900000000005C115.08731174535731-28.320900000000005 114.03499950142343-27.0345 115.07893633294044-25.486800000000002 116.12287316445747-23.9391 118.91056092052355-22.652700000000003 121.22056092052355-22.652700000000003L125.45056092052354-22.652700000000003ZM188.81056092052356-22.652700000000003C188.81056092052356-22.652700000000003 174.21617091475213-4.824000000000001 174.21617091475213-4.824000000000001 173.78318827271684-4.294700000000001 173.8022242213783-3.5845 174.30837541241686-2.8341000000000003 175.3523122439339-1.2864 178.13 0 180.44 0L214.26 0C216.57 0 217.6123122439339-1.2864 216.56837541241686-2.8341000000000003 215.52443858089984-4.3818 212.75127003189658-5.6615 210.44127003189658-5.6615L186.7912700318966-5.6615C186.7912700318966-5.6615 201.38114083060518-23.4969 201.38114083060518-23.4969 201.88412347264048-24.0262 201.7679722816019-24.7766 201.28893633294044-25.486800000000002 200.2449995014234-27.0345 197.4673117453573-28.320900000000005 195.1573117453573-28.320900000000005L161.3373117453573-28.320900000000005C159.0273117453573-28.320900000000005 157.9849995014234-27.0345 159.02893633294045-25.486800000000002 160.07287316445746-23.9391 162.85056092052355-22.652700000000003 165.16056092052355-22.652700000000003Z" transform="translate(14.954998016357422, 28.320899963378906)"></path></g><g><path d="M27.80114083060518-23.4969C28.24412347264049-24.0262 28.225087523978992-24.736400000000003 27.718936332940434-25.486800000000002 26.67499950142341-27.0345 23.887311745357316-28.320900000000005 21.577311745357314-28.320900000000005 20.457311745357316-28.320900000000005 19.60519527024815-28.012700000000002 19.176731835275696-27.4767L4.592341829504266-9.648000000000001-6.091063667059563-25.486800000000002C-7.135000498576586-27.0345-9.922688254642686-28.320900000000005-12.232688254642685-28.320900000000005-14.542688254642687-28.320900000000005-15.595000498576585-27.0345-14.551063667059562-25.486800000000002L0.7283754124168782-2.8341000000000003C1.7723122439339023-1.2864 4.56 0 6.87 0 7.93 0 8.86923171748623-0.268 9.275099117144467-0.8375L16.91532447153957-10.1773 37.14509911714447-0.8375C38.31923171748623-0.268 39.63 0 40.68 0 42.99 0 44.0423122439339-1.2864 42.99837541241688-2.8341000000000003 42.52385867081823-3.5376000000000003 41.613188272716826-4.294700000000001 40.39617091475213-4.824000000000001L20.17091547621008-14.1571ZM94.90893633294043-25.486800000000002C93.86499950142341-27.0345 91.08731174535731-28.320900000000005 88.77731174535731-28.320900000000005 86.45731174535732-28.320900000000005 85.41499950142342-27.0345 86.45893633294044-25.486800000000002L97.14234182950428-9.648000000000001 79.98063908122235-17.5674C78.79198727381775-18.1436 77.49573819836682-18.4049 76.43573819836682-18.4049 75.38573819836682-18.4049 74.44198727381776-18.1436 74.03063908122235-17.5674L67.55234182950427-9.648000000000001 56.868936332940436-25.486800000000002C55.82499950142342-27.0345 53.04731174535732-28.320900000000005 50.72731174535731-28.320900000000005 48.41731174535731-28.320900000000005 47.37499950142342-27.0345 48.41893633294043-25.486800000000002L63.69837541241688-2.8341000000000003C64.7423122439339-1.2864 67.52 0 69.83 0 70.96 0 71.80211647510917-0.30820000000000003 72.24509911714446-0.8375L81.03177178127943-11.591000000000001 104.33509911714447-0.8375C105.49211647510917-0.30820000000000003 106.75 0 107.88 0 110.19 0 111.23231224393389-1.2864 110.18837541241687-2.8341000000000003ZM136.91127003189658-5.6615L132.6812700318966-5.6615C130.3712700318966-5.6615 129.31443858089986-4.3818 130.35837541241688-2.8341000000000003 131.40231224393392-1.2864 134.19 0 136.5 0L153.41 0C155.72 0 156.7623122439339-1.2864 155.71837541241686-2.8341000000000003 154.67443858089985-4.3818 151.9012700318966-5.6615 149.59127003189658-5.6615L145.3612700318966-5.6615 133.90056092052356-22.652700000000003 138.13056092052355-22.652700000000003C140.44056092052355-22.652700000000003 141.48287316445746-23.9391 140.43893633294044-25.486800000000002 139.3949995014234-27.0345 136.6173117453573-28.320900000000005 134.3073117453573-28.320900000000005L117.39731174535731-28.320900000000005C115.08731174535731-28.320900000000005 114.03499950142343-27.0345 115.07893633294044-25.486800000000002 116.12287316445747-23.9391 118.91056092052355-22.652700000000003 121.22056092052355-22.652700000000003L125.45056092052354-22.652700000000003ZM188.81056092052356-22.652700000000003C188.81056092052356-22.652700000000003 174.21617091475213-4.824000000000001 174.21617091475213-4.824000000000001 173.78318827271684-4.294700000000001 173.8022242213783-3.5845 174.30837541241686-2.8341000000000003 175.3523122439339-1.2864 178.13 0 180.44 0L214.26 0C216.57 0 217.6123122439339-1.2864 216.56837541241686-2.8341000000000003 215.52443858089984-4.3818 212.75127003189658-5.6615 210.44127003189658-5.6615L186.7912700318966-5.6615C186.7912700318966-5.6615 201.38114083060518-23.4969 201.38114083060518-23.4969 201.88412347264048-24.0262 201.7679722816019-24.7766 201.28893633294044-25.486800000000002 200.2449995014234-27.0345 197.4673117453573-28.320900000000005 195.1573117453573-28.320900000000005L161.3373117453573-28.320900000000005C159.0273117453573-28.320900000000005 157.9849995014234-27.0345 159.02893633294045-25.486800000000002 160.07287316445746-23.9391 162.85056092052355-22.652700000000003 165.16056092052355-22.652700000000003Z" transform="translate(14.954998016357422, 28.320899963378906)"></path></g></g></g></g> <g fill-rule="" class="tp-slogan" transform="translate(-68.26211547851562,22.95967674255371)"> <g transform="scale(1, 1)"><g transform="scale(1.02)"><path d="M6.01-3.33L6.01-3.33Q6.12-3.40 6.22-3.40L6.22-3.40Q6.38-3.40 6.44-3.23Q6.50-3.06 6.50-2.82L6.50-2.82Q6.50-2.63 6.43-2.43Q6.37-2.24 6.27-2.07Q6.16-1.89 6.04-1.73Q5.91-1.56 5.78-1.43L5.78-1.43Q5.46-1.10 5.07-0.83Q4.68-0.57 4.24-0.38Q3.80-0.20 3.34-0.10Q2.88 0 2.41 0L2.41 0Q1.75 0 1.29-0.21Q0.84-0.42 0.56-0.77Q0.28-1.12 0.16-1.58Q0.05-2.04 0.05-2.54Q0.05-3.05 0.16-3.56Q0.26-4.07 0.43-4.53L0.43-4.53Q0.61-5.02 0.89-5.53Q1.17-6.03 1.52-6.50Q1.88-6.97 2.31-7.38Q2.74-7.79 3.23-8.10Q3.72-8.40 4.26-8.58Q4.79-8.75 5.36-8.75L5.36-8.75Q5.67-8.75 5.95-8.67Q6.23-8.58 6.45-8.41Q6.66-8.23 6.79-7.98Q6.91-7.73 6.91-7.40L6.91-7.40Q6.91-7.04 6.83-6.70Q6.74-6.37 6.59-6.08Q6.45-5.79 6.25-5.56Q6.05-5.33 5.84-5.17Q5.63-5.00 5.40-4.91Q5.18-4.82 4.98-4.82L4.98-4.82Q4.80-4.82 4.65-4.89Q4.49-4.97 4.39-5.14Q4.28-5.30 4.23-5.56Q4.18-5.82 4.20-6.19L4.20-6.19Q4.22-6.40 4.32-6.52Q4.42-6.64 4.56-6.71Q4.71-6.79 4.87-6.83Q5.03-6.88 5.17-6.95Q5.31-7.01 5.40-7.12Q5.49-7.22 5.48-7.40L5.48-7.40Q5.48-7.46 5.47-7.49L5.47-7.49Q5.43-7.52 5.39-7.52Q5.36-7.52 5.31-7.52L5.31-7.52Q4.93-7.52 4.55-7.34Q4.16-7.16 3.79-6.85Q3.42-6.53 3.08-6.12Q2.74-5.70 2.45-5.23Q2.16-4.76 1.94-4.27Q1.72-3.77 1.59-3.30Q1.46-2.83 1.44-2.41Q1.42-2.00 1.53-1.68Q1.64-1.37 1.89-1.19Q2.14-1.01 2.57-1.01L2.57-1.01Q3.19-1.01 3.66-1.16Q4.12-1.31 4.46-1.54Q4.79-1.78 5.03-2.05Q5.27-2.33 5.44-2.59Q5.61-2.85 5.75-3.06Q5.88-3.26 6.01-3.33ZM14.88-0.19L14.88-0.19Q14.06-0.32 13.61-1.23Q13.17-2.14 13.22-3.26Q13.27-4.38 13.54-4.86L13.54-4.86Q13.45-5.21 13.53-5.94Q13.61-6.67 14.38-7.52Q15.15-8.38 16.58-8.48L16.58-8.48Q17.71-8.40 18.11-8.06L18.11-8.06Q18.62-7.74 18.93-7.22Q19.24-6.71 19.36-6.08Q19.48-5.46 19.43-4.76Q19.38-4.07 19.17-3.39Q18.96-2.72 18.59-2.10Q18.22-1.49 17.72-1.02Q17.22-0.55 16.43-0.28Q15.64-0.01 14.88-0.19ZM14.74-5.54L14.74-5.54Q14.74-5.39 14.82-5.19Q14.89-4.99 15.01-4.80Q15.13-4.62 15.29-4.50Q15.45-4.37 15.62-4.37L15.62-4.37Q15.74-4.37 15.84-4.42Q15.94-4.46 16.03-4.46L16.03-4.46Q16.09-4.46 16.15-4.42Q16.20-4.38 16.26-4.27L16.26-4.27Q16.38-4.04 16.31-3.88Q16.24-3.73 16.06-3.62Q15.88-3.52 15.63-3.47Q15.38-3.43 15.11-3.43L15.11-3.43Q14.85-3.43 14.60-3.50Q14.36-3.58 14.14-3.71L14.14-3.71Q14.10-3.52 14.07-3.25Q14.04-2.98 14.05-2.70Q14.06-2.41 14.12-2.14Q14.18-1.87 14.30-1.66Q14.43-1.44 14.62-1.31Q14.82-1.18 15.11-1.18L15.11-1.18Q15.33-1.18 15.54-1.23Q15.76-1.29 15.96-1.39Q16.15-1.48 16.34-1.61Q16.52-1.74 16.69-1.88L16.69-1.88Q16.97-2.13 17.22-2.50Q17.46-2.87 17.65-3.29Q17.83-3.72 17.94-4.18Q18.06-4.65 18.09-5.09Q18.12-5.54 18.04-5.94Q17.97-6.34 17.78-6.64Q17.60-6.94 17.28-7.12Q16.97-7.30 16.51-7.30L16.51-7.30Q16.14-7.30 15.82-7.16Q15.50-7.03 15.26-6.79Q15.02-6.54 14.88-6.22Q14.74-5.90 14.74-5.54ZM28.41-7.67L28.41-7.67Q28.41-7.57 28.40-7.31Q28.40-7.05 28.40-6.70Q28.40-6.34 28.40-5.91Q28.40-5.48 28.41-5.04Q28.42-4.60 28.43-4.17Q28.45-3.74 28.48-3.39Q28.51-3.03 28.55-2.77Q28.59-2.51 28.65-2.41L28.65-2.41Q28.66-2.34 28.70-2.34L28.70-2.34Q28.78-2.34 28.95-2.58Q29.13-2.81 29.36-3.20Q29.60-3.59 29.87-4.10Q30.15-4.61 30.45-5.17Q30.74-5.73 31.03-6.30Q31.32-6.87 31.57-7.37Q31.82-7.88 32.02-8.29Q32.23-8.70 32.34-8.93L32.34-8.93Q32.50-9.30 32.92-9.30L32.92-9.30Q33.02-9.30 33.17-9.24Q33.31-9.18 33.44-9.08Q33.56-8.99 33.65-8.87Q33.74-8.75 33.74-8.63L33.74-8.63Q33.74-8.54 33.71-8.40Q33.68-8.26 33.64-8.10Q33.60-7.95 33.56-7.80Q33.52-7.66 33.49-7.56L33.49-7.56Q33.25-6.70 33.00-5.84Q32.76-4.97 32.56-4.09Q32.36-3.22 32.24-2.33Q32.12-1.45 32.12-0.54L32.12-0.54Q32.12-0.19 32.16 0.07Q32.21 0.32 32.28 0.50Q32.35 0.68 32.43 0.81Q32.51 0.93 32.58 1.02Q32.65 1.11 32.70 1.19Q32.75 1.27 32.75 1.37L32.75 1.37Q32.75 1.73 32.55 1.90Q32.34 2.07 32.03 2.07L32.03 2.07Q31.86 2.07 31.68 2.02Q31.49 1.97 31.30 1.88Q31.11 1.78 30.93 1.63Q30.74 1.49 30.59 1.30L30.59 1.30Q30.33 1.00 30.26 0.53Q30.18 0.05 30.22-0.51Q30.26-1.08 30.39-1.69Q30.52-2.31 30.68-2.89Q30.84-3.48 31.00-3.99Q31.17-4.50 31.28-4.85L31.28-4.85Q31.19-4.73 31.05-4.51Q30.91-4.28 30.73-3.99Q30.55-3.70 30.34-3.37Q30.13-3.04 29.91-2.71Q29.69-2.38 29.46-2.09Q29.23-1.79 29.02-1.56Q28.80-1.33 28.60-1.19Q28.41-1.05 28.25-1.05L28.25-1.05Q28.04-1.05 27.92-1.26Q27.80-1.46 27.73-1.80Q27.67-2.14 27.65-2.57Q27.63-3.01 27.64-3.46Q27.64-3.92 27.66-4.36Q27.68-4.80 27.68-5.16L27.68-5.16Q27.59-4.88 27.47-4.45Q27.36-4.03 27.24-3.54Q27.12-3.06 27-2.57Q26.88-2.07 26.75-1.64Q26.63-1.20 26.51-0.87Q26.40-0.53 26.29-0.38L26.29-0.38Q26.23-0.29 26.13-0.22Q26.02-0.14 25.90-0.08Q25.78-0.02 25.65 0.01Q25.52 0.05 25.42 0.05L25.42 0.05Q25.20 0.05 25.11-0.08Q25.01-0.21 25.01-0.42L25.01-0.42Q25.01-0.43 25.06-0.63Q25.10-0.84 25.17-1.18Q25.25-1.52 25.35-1.98Q25.45-2.44 25.56-2.96Q25.68-3.48 25.80-4.03Q25.93-4.58 26.05-5.12Q26.17-5.65 26.29-6.13Q26.41-6.62 26.50-7.01Q26.60-7.39 26.67-7.66Q26.75-7.92 26.79-8.00L26.79-8.00Q26.87-8.18 27.04-8.29Q27.21-8.40 27.42-8.40L27.42-8.40Q27.60-8.40 27.82-8.33Q28.04-8.26 28.18-8.15L28.18-8.15Q28.30-8.05 28.35-7.94Q28.41-7.82 28.41-7.67ZM40.86-0.84L40.86-0.84Q40.81-0.70 40.67-0.55Q40.53-0.40 40.35-0.28Q40.17-0.15 39.98-0.08Q39.79 0 39.63 0L39.63 0Q39.47 0 39.37-0.10Q39.26-0.20 39.29-0.36L39.29-0.36Q39.39-0.86 39.57-1.45Q39.74-2.04 39.95-2.70Q40.17-3.35 40.40-4.03Q40.64-4.71 40.88-5.36Q41.11-6.02 41.32-6.63Q41.53-7.25 41.69-7.77L41.69-7.77Q41.67-7.78 41.63-7.78L41.63-7.78Q41.29-7.75 41.03-7.61Q40.77-7.47 40.54-7.26Q40.31-7.04 40.10-6.78Q39.88-6.51 39.64-6.24Q39.40-5.97 39.11-5.72Q38.82-5.47 38.44-5.27L38.44-5.27Q38.29-5.20 38.13-5.20L38.13-5.20Q37.90-5.20 37.70-5.33Q37.50-5.46 37.39-5.68Q37.28-5.91 37.30-6.21Q37.32-6.51 37.54-6.86L37.54-6.86Q37.81-7.27 38.17-7.58Q38.54-7.90 38.96-8.12Q39.39-8.35 39.87-8.50Q40.34-8.65 40.83-8.73Q41.33-8.82 41.82-8.85Q42.32-8.89 42.80-8.89L42.80-8.89Q43.14-8.89 43.58-8.84Q44.02-8.79 44.47-8.68Q44.92-8.57 45.36-8.40Q45.80-8.22 46.14-7.96Q46.48-7.70 46.68-7.35Q46.89-7.01 46.89-6.56L46.89-6.56Q46.89-6.15 46.71-5.79Q46.52-5.44 46.20-5.13Q45.88-4.82 45.47-4.57Q45.06-4.31 44.62-4.10Q44.17-3.90 43.71-3.74Q43.26-3.58 42.86-3.47Q42.46-3.36 42.15-3.30Q41.84-3.23 41.67-3.22L41.67-3.22Q41.56-2.87 41.48-2.64Q41.41-2.40 41.35-2.23Q41.29-2.05 41.24-1.91Q41.19-1.77 41.13-1.62Q41.07-1.47 41.01-1.29Q40.95-1.11 40.86-0.84ZM42.02-4.37L42.02-4.37Q42.22-4.41 42.54-4.51Q42.86-4.62 43.22-4.78Q43.58-4.94 43.94-5.14Q44.30-5.35 44.59-5.59Q44.88-5.83 45.06-6.09Q45.24-6.35 45.24-6.62L45.24-6.62Q45.24-6.83 45.12-7.00Q44.99-7.17 44.80-7.29Q44.60-7.42 44.36-7.51Q44.12-7.61 43.87-7.66Q43.62-7.72 43.40-7.75Q43.18-7.79 43.03-7.79L43.03-7.79Q43.05-7.75 43.05-7.68L43.05-7.68Q43.05-7.61 42.98-7.36Q42.91-7.12 42.81-6.79Q42.71-6.46 42.59-6.08Q42.46-5.70 42.35-5.36Q42.23-5.02 42.14-4.75Q42.05-4.48 42.02-4.37ZM53.14-8.12L53.14-8.12Q53.27-8.31 53.42-8.37Q53.57-8.43 53.79-8.43L53.79-8.43Q54.08-8.43 54.21-8.32Q54.35-8.21 54.35-7.92L54.35-7.92Q54.35-7.68 54.24-7.27Q54.12-6.87 53.95-6.37Q53.78-5.87 53.59-5.31Q53.39-4.76 53.23-4.21Q53.07-3.67 52.98-3.18Q52.88-2.68 52.91-2.31Q52.93-1.94 53.12-1.72Q53.30-1.51 53.70-1.52L53.70-1.52Q54.07-1.54 54.39-1.73Q54.70-1.93 54.98-2.25Q55.25-2.57 55.47-2.99Q55.69-3.42 55.88-3.89Q56.07-4.36 56.22-4.85Q56.37-5.35 56.48-5.81Q56.60-6.27 56.69-6.68Q56.78-7.08 56.85-7.38L56.85-7.38Q56.88-7.48 56.91-7.61Q56.94-7.73 56.97-7.87Q57.01-8.00 57.05-8.12Q57.10-8.24 57.16-8.32L57.16-8.32Q57.21-8.39 57.29-8.44Q57.37-8.48 57.46-8.51Q57.55-8.54 57.64-8.55Q57.74-8.55 57.83-8.55L57.83-8.55Q58.01-8.55 58.11-8.46Q58.21-8.36 58.24-8.21Q58.27-8.06 58.25-7.87Q58.23-7.68 58.19-7.49Q58.15-7.30 58.10-7.14Q58.05-6.98 58.03-6.88L58.03-6.88Q57.86-6.17 57.70-5.41Q57.54-4.64 57.33-3.90Q57.12-3.16 56.82-2.49Q56.51-1.82 56.06-1.28Q55.60-0.75 54.96-0.40Q54.32-0.05 53.42 0.04L53.42 0.04Q53.34 0.04 53.26 0.04Q53.18 0.05 53.10 0.05L53.10 0.05Q52.49 0.05 52.14-0.21Q51.79-0.46 51.63-0.89Q51.47-1.32 51.47-1.90Q51.48-2.47 51.59-3.10Q51.70-3.73 51.88-4.38Q52.07-5.03 52.26-5.63Q52.45-6.23 52.63-6.74Q52.81-7.25 52.91-7.58L52.91-7.58Q52.95-7.72 53.01-7.86Q53.06-8.00 53.14-8.12ZM66.42-7.13L66.42-7.13Q65.55-7.08 64.71-7.04Q63.86-7.00 62.99-7.00L62.99-7.00Q62.88-7.00 62.76-7.02Q62.64-7.04 62.54-7.09Q62.44-7.14 62.37-7.23Q62.30-7.31 62.30-7.44L62.30-7.44Q62.30-7.54 62.36-7.62Q62.42-7.71 62.50-7.78Q62.59-7.86 62.69-7.92Q62.78-7.98 62.86-8.02L62.86-8.02Q63.04-8.10 63.24-8.13Q63.43-8.16 63.63-8.16L63.63-8.16L63.66-8.16Q63.95-8.19 64.30-8.19Q64.65-8.19 64.95-8.19L64.95-8.19L67.80-8.24Q68.91-8.27 70.00-8.29Q71.09-8.32 72.19-8.32L72.19-8.32Q72.28-8.32 72.40-8.32Q72.52-8.31 72.64-8.30Q72.77-8.29 72.89-8.27Q73.00-8.24 73.07-8.20L73.07-8.20L73.04-8.22Q73.17-8.16 73.17-8.01L73.17-8.01Q73.17-7.89 73.11-7.79Q73.05-7.69 72.96-7.61Q72.87-7.54 72.76-7.49Q72.65-7.44 72.54-7.42L72.54-7.42Q72.31-7.37 72.07-7.35Q71.83-7.34 71.58-7.34L71.58-7.34Q71.53-7.34 71.35-7.33Q71.17-7.32 70.91-7.32Q70.65-7.31 70.34-7.30Q70.04-7.29 69.72-7.28Q69.41-7.27 69.11-7.25Q68.81-7.24 68.58-7.22Q68.34-7.21 68.19-7.19Q68.04-7.18 68.03-7.17L68.03-7.17Q67.98-7.12 67.95-7.06Q67.92-7.00 67.89-6.93L67.89-6.93Q67.75-6.58 67.65-6.20Q67.55-5.82 67.44-5.46L67.44-5.46Q67.17-4.56 66.91-3.69Q66.64-2.82 66.37-1.93L66.37-1.93Q66.32-1.76 66.10-1.10Q65.88-0.45 65.81-0.23Q65.74-0.02 65.66 0.17Q65.58 0.36 65.49 0.50L65.49 0.50Q65.43 0.59 65.33 0.66Q65.24 0.73 65.13 0.79Q65.02 0.84 64.90 0.87Q64.78 0.90 64.68 0.90L64.68 0.90Q64.45 0.90 64.59 0.24Q64.73-0.43 66.42-7.13ZM75.30-0.42L75.30-0.42Q75.26-0.33 75.17-0.25Q75.08-0.18 74.96-0.12Q74.85-0.06 74.74-0.03Q74.62 0 74.53 0L74.53 0Q74.44-0.39 74.71-1.52Q74.98-2.65 75.30-3.95Q75.61-5.25 75.98-6.51L75.98-6.51Q76.03-6.67 76.07-6.81Q76.12-6.96 76.15-7.13L76.15-7.13Q76.03-7.08 75.98-7.10Q75.93-7.11 75.75-7.15Q75.56-7.18 75.45-7.51Q75.34-7.85 75.52-7.93Q75.70-8.01 75.90-8.10Q76.10-8.19 76.29-8.27Q76.48-8.36 76.91-8.53Q77.34-8.71 77.38-8.73L77.38-8.73Q77.44-8.75 77.48-8.75Q77.53-8.75 77.58-8.75L77.58-8.75Q77.67-8.75 77.79-8.71Q77.91-8.67 78.02-8.59Q78.12-8.52 78.20-8.43Q78.28-8.33 78.24-8.20Q78.21-8.07 77.91-7.90Q77.61-7.72 77.59-7.65L77.59-7.65Q77.21-6.42 76.83-5.21Q76.46-4.01 76.08-2.78L76.08-2.78Q75.43-0.76 75.39-0.64Q75.35-0.53 75.30-0.42ZM85.73-8.60L85.73-8.60Q85.89-8.60 86.04-8.54Q86.20-8.48 86.32-8.37Q86.44-8.26 86.52-8.12Q86.60-7.97 86.57-7.55Q86.55-7.13 86.61-6.38Q86.67-5.64 86.94-4.27Q87.21-2.89 87.53-1.73L87.53-1.73Q88.16-3.88 88.56-5.38Q88.96-6.88 89.34-8.39L89.34-8.39Q89.41-8.63 89.46-8.86Q89.51-9.09 89.60-9.31L89.60-9.31Q89.64-9.39 89.68-9.47Q89.72-9.55 89.80-9.60L89.80-9.60L89.82-9.62Q89.88-9.66 89.95-9.67Q90.02-9.67 90.09-9.67L90.09-9.67L90.14-9.67Q90.36-9.54 90.42-9.23Q90.48-8.91 90.32-7.55Q90.16-6.19 89.66-4.25Q89.16-2.31 88.65-0.36L88.65-0.36Q88.57-0.04 88.36 0.18Q88.14 0.39 87.85 0.39L87.85 0.39Q87.63 0.39 87.37 0.23Q87.12 0.08 86.85-0.30L86.85-0.30Q86.81-0.37 86.79-0.45Q86.77-0.54 86.75-0.62L86.75-0.62Q86.51-1.65 86.29-2.70Q86.07-3.74 85.77-4.77L85.77-4.77Q85.51-3.83 85.26-2.89Q85.01-1.96 84.76-1.02L84.76-1.02Q84.74-0.97 84.71-0.89Q84.68-0.81 84.64-0.73Q84.59-0.64 84.55-0.57Q84.50-0.50 84.46-0.47L84.46-0.47Q84.22-0.18 83.93-0.32Q83.65-0.46 83.82-1.71Q83.99-2.96 84.25-4.29Q84.52-5.62 84.81-6.96L84.81-6.96Q84.84-7.10 84.86-7.27Q84.88-7.45 84.91-7.62Q84.94-7.79 84.98-7.95Q85.01-8.12 85.08-8.24L85.08-8.24Q85.18-8.43 85.35-8.51Q85.53-8.60 85.73-8.60ZM99.36-3.87L99.36-3.87Q99.58-3.91 99.84-3.93Q100.11-3.96 100.37-3.97Q100.64-3.99 100.89-4.00Q101.14-4.01 101.35-4.01Q101.55-4.02 101.68-4.02Q101.81-4.03 101.82-4.03L101.82-4.03Q102.19-4.03 102.40-3.85Q102.60-3.68 102.65-3.40Q102.70-3.11 102.60-2.75Q102.50-2.39 102.27-2.01Q102.04-1.63 101.67-1.27Q101.31-0.91 100.83-0.63Q100.35-0.35 99.76-0.17Q99.18 0 98.48 0L98.48 0Q97.90 0 97.45-0.18Q96.99-0.35 96.68-0.68Q96.36-1.01 96.20-1.48Q96.03-1.95 96.03-2.53L96.03-2.53Q96.03-3.21 96.23-3.94Q96.44-4.68 96.81-5.38Q97.17-6.08 97.68-6.72Q98.19-7.35 98.79-7.83Q99.39-8.31 100.07-8.59Q100.75-8.87 101.47-8.87L101.47-8.87Q101.78-8.87 102.06-8.78Q102.34-8.70 102.56-8.52Q102.78-8.35 102.91-8.09Q103.04-7.84 103.04-7.51L103.04-7.51Q103.04-7.27 102.97-7.00Q102.91-6.74 102.79-6.48Q102.67-6.22 102.51-5.99Q102.35-5.75 102.14-5.57Q101.94-5.38 101.70-5.28Q101.47-5.17 101.21-5.17L101.21-5.17L101.15-5.17Q101.03-5.17 100.85-5.21Q100.66-5.25 100.50-5.37Q100.34-5.48 100.24-5.71Q100.14-5.94 100.20-6.31L100.20-6.31Q100.21-6.38 100.34-6.48Q100.46-6.58 100.63-6.70Q100.80-6.82 100.98-6.95Q101.16-7.07 101.29-7.19Q101.42-7.31 101.46-7.41Q101.50-7.51 101.38-7.56L101.38-7.56Q101.19-7.65 100.99-7.65L100.99-7.65Q100.69-7.65 100.38-7.49Q100.07-7.33 99.76-7.06Q99.46-6.79 99.17-6.42Q98.88-6.06 98.63-5.65Q98.37-5.24 98.16-4.80Q97.95-4.36 97.80-3.94Q97.65-3.52 97.56-3.14Q97.48-2.76 97.48-2.46L97.48-2.46Q97.48-2.12 97.59-1.88Q97.70-1.64 97.89-1.49Q98.09-1.33 98.34-1.26Q98.59-1.19 98.87-1.19L98.87-1.19Q99.25-1.19 99.64-1.31Q100.03-1.42 100.35-1.63Q100.67-1.84 100.88-2.12Q101.09-2.41 101.09-2.74L101.09-2.74Q101.09-2.74 101.00-2.73Q100.92-2.72 100.81-2.72Q100.71-2.71 100.61-2.70Q100.52-2.69 100.49-2.69L100.49-2.69Q100.27-2.67 100.12-2.64Q99.97-2.61 99.83-2.59Q99.70-2.57 99.55-2.55Q99.40-2.54 99.16-2.54L99.16-2.54Q98.92-2.54 98.82-2.67Q98.71-2.81 98.71-2.99Q98.70-3.18 98.77-3.37Q98.85-3.56 98.96-3.69L98.96-3.69Q99.05-3.78 99.15-3.81Q99.24-3.85 99.36-3.87ZM120.70-7.13L120.70-7.13Q119.84-7.08 118.99-7.04Q118.14-7.00 117.28-7.00L117.28-7.00Q117.17-7.00 117.05-7.02Q116.93-7.04 116.83-7.09Q116.72-7.14 116.66-7.23Q116.59-7.31 116.59-7.44L116.59-7.44Q116.59-7.54 116.65-7.62Q116.71-7.71 116.79-7.78Q116.88-7.86 116.97-7.92Q117.07-7.98 117.15-8.02L117.15-8.02Q117.33-8.10 117.52-8.13Q117.72-8.16 117.92-8.16L117.92-8.16L117.94-8.16Q118.24-8.19 118.59-8.19Q118.94-8.19 119.23-8.19L119.23-8.19L122.09-8.24Q123.19-8.27 124.28-8.29Q125.37-8.32 126.48-8.32L126.48-8.32Q126.56-8.32 126.68-8.32Q126.80-8.31 126.93-8.30Q127.06-8.29 127.17-8.27Q127.29-8.24 127.35-8.20L127.35-8.20L127.33-8.22Q127.45-8.16 127.45-8.01L127.45-8.01Q127.45-7.89 127.39-7.79Q127.34-7.69 127.25-7.61Q127.16-7.54 127.05-7.49Q126.94-7.44 126.83-7.42L126.83-7.42Q126.60-7.37 126.36-7.35Q126.12-7.34 125.87-7.34L125.87-7.34Q125.81-7.34 125.63-7.33Q125.46-7.32 125.20-7.32Q124.94-7.31 124.63-7.30Q124.32-7.29 124.01-7.28Q123.70-7.27 123.40-7.25Q123.10-7.24 122.87-7.22Q122.63-7.21 122.48-7.19Q122.33-7.18 122.31-7.17L122.31-7.17Q122.27-7.12 122.24-7.06Q122.20-7.00 122.18-6.93L122.18-6.93Q122.04-6.58 121.94-6.20Q121.83-5.82 121.72-5.46L121.72-5.46Q121.46-4.56 121.20-3.69Q120.93-2.82 120.66-1.93L120.66-1.93Q120.60-1.76 120.38-1.10Q120.16-0.45 120.10-0.23Q120.03-0.02 119.95 0.17Q119.87 0.36 119.78 0.50L119.78 0.50Q119.72 0.59 119.62 0.66Q119.53 0.73 119.41 0.79Q119.30 0.84 119.19 0.87Q119.07 0.90 118.97 0.90L118.97 0.90Q118.74 0.90 118.88 0.24Q119.02-0.43 120.70-7.13ZM130.38-4.83Q130.73-5.85 130.87-6.29Q131.00-6.74 131.10-7.16L131.10-7.16Q130.65-7.14 130.20-7.09Q129.76-7.05 129.30-7.05L129.30-7.05Q129.21-7.05 129.09-7.08Q128.98-7.11 128.89-7.16Q128.79-7.22 128.75-7.31Q128.70-7.39 128.72-7.51L128.72-7.51Q128.77-7.72 129.05-7.87Q129.33-8.03 129.78-8.14Q130.22-8.26 130.78-8.33Q131.35-8.41 131.96-8.46Q132.56-8.50 133.17-8.53Q133.79-8.55 134.33-8.57Q134.87-8.58 135.29-8.59Q135.72-8.60 135.96-8.60L135.96-8.60Q136.02-8.60 136.11-8.60Q136.20-8.60 136.30-8.58Q136.39-8.57 136.48-8.54Q136.56-8.52 136.62-8.48L136.62-8.48Q136.71-8.40 136.71-8.29L136.71-8.29Q136.71-8.19 136.68-8.09Q136.65-7.99 136.61-7.91L136.61-7.91Q136.54-7.77 136.42-7.69Q136.29-7.61 136.15-7.56Q136.01-7.52 135.86-7.50Q135.71-7.48 135.57-7.48L135.57-7.48Q134.89-7.45 134.21-7.41Q133.52-7.37 132.85-7.29L132.85-7.29Q132.79-7.28 132.73-7.27Q132.66-7.26 132.62-7.21L132.62-7.21Q132.54-7.00 132.47-6.78Q132.40-6.56 132.33-6.35L132.33-6.35Q132.30-6.28 132.26-6.17Q132.22-6.05 132.17-5.93Q132.12-5.80 132.09-5.68Q132.05-5.56 132.05-5.48L132.05-5.48Q132.43-5.48 132.82-5.50Q133.21-5.51 133.59-5.51L133.59-5.51Q133.81-5.51 133.93-5.45Q134.06-5.38 134.11-5.29Q134.16-5.19 134.14-5.06Q134.13-4.94 134.08-4.83Q134.03-4.71 133.95-4.62Q133.87-4.52 133.78-4.48L133.78-4.48Q133.64-4.42 133.49-4.40L133.49-4.40Q133.03-4.35 132.57-4.32Q132.11-4.29 131.60-4.23L131.60-4.23Q131.56-4.17 131.50-4.01Q131.43-3.86 131.36-3.65Q131.29-3.44 131.20-3.20Q131.12-2.95 131.05-2.71Q130.98-2.46 130.93-2.23Q130.88-2.00 130.85-1.83Q130.82-1.65 130.83-1.54Q130.85-1.44 130.91-1.44L130.91-1.44Q131.08-1.44 131.25-1.46Q131.41-1.48 131.58-1.49L131.58-1.49Q132.21-1.56 132.85-1.63Q133.50-1.71 134.13-1.71L134.13-1.71Q134.38-1.71 134.53-1.65Q134.67-1.59 134.74-1.49Q134.80-1.40 134.79-1.28Q134.78-1.17 134.73-1.05Q134.67-0.94 134.58-0.84Q134.48-0.74 134.36-0.69L134.36-0.69Q134.24-0.63 134.10-0.61Q133.96-0.59 133.82-0.57L133.82-0.57Q132.97-0.47 132.12-0.35Q131.28-0.22 130.42-0.11L130.42-0.11Q130.29-0.08 130.19-0.08L130.19-0.08Q129.93-0.08 129.78-0.24Q129.63-0.41 129.57-0.68Q129.51-0.94 129.52-1.27Q129.53-1.59 129.57-1.91Q129.62-2.22 129.67-2.49Q129.73-2.75 129.77-2.90L129.77-2.90Q129.86-3.21 129.95-3.51Q130.04-3.81 130.38-4.83ZM147.40-3.33L147.40-3.33Q147.51-3.40 147.61-3.40L147.61-3.40Q147.77-3.40 147.83-3.23Q147.89-3.06 147.89-2.82L147.89-2.82Q147.89-2.63 147.83-2.43Q147.76-2.24 147.66-2.07Q147.56-1.89 147.43-1.73Q147.30-1.56 147.18-1.43L147.18-1.43Q146.85-1.10 146.46-0.83Q146.07-0.57 145.63-0.38Q145.20-0.20 144.74-0.10Q144.28 0 143.81 0L143.81 0Q143.14 0 142.68-0.21Q142.23-0.42 141.95-0.77Q141.67-1.12 141.56-1.58Q141.44-2.04 141.44-2.54Q141.45-3.05 141.55-3.56Q141.65-4.07 141.82-4.53L141.82-4.53Q142.00-5.02 142.28-5.53Q142.56-6.03 142.92-6.50Q143.27-6.97 143.70-7.38Q144.13-7.79 144.62-8.10Q145.11-8.40 145.65-8.58Q146.19-8.75 146.75-8.75L146.75-8.75Q147.06-8.75 147.34-8.67Q147.62-8.58 147.84-8.41Q148.05-8.23 148.18-7.98Q148.31-7.73 148.31-7.40L148.31-7.40Q148.31-7.04 148.22-6.70Q148.13-6.37 147.98-6.08Q147.84-5.79 147.64-5.56Q147.45-5.33 147.23-5.17Q147.02-5.00 146.79-4.91Q146.57-4.82 146.37-4.82L146.37-4.82Q146.19-4.82 146.04-4.89Q145.89-4.97 145.78-5.14Q145.68-5.30 145.62-5.56Q145.57-5.82 145.59-6.19L145.59-6.19Q145.61-6.40 145.71-6.52Q145.81-6.64 145.95-6.71Q146.10-6.79 146.26-6.83Q146.43-6.88 146.56-6.95Q146.70-7.01 146.79-7.12Q146.88-7.22 146.88-7.40L146.88-7.40Q146.88-7.46 146.87-7.49L146.87-7.49Q146.82-7.52 146.79-7.52Q146.75-7.52 146.70-7.52L146.70-7.52Q146.33-7.52 145.94-7.34Q145.55-7.16 145.18-6.85Q144.81-6.53 144.47-6.12Q144.13-5.70 143.84-5.23Q143.55-4.76 143.33-4.27Q143.12-3.77 142.99-3.30Q142.86-2.83 142.83-2.41Q142.81-2.00 142.92-1.68Q143.03-1.37 143.29-1.19Q143.54-1.01 143.96-1.01L143.96-1.01Q144.59-1.01 145.05-1.16Q145.51-1.31 145.85-1.54Q146.19-1.78 146.42-2.05Q146.66-2.33 146.83-2.59Q147.01-2.85 147.14-3.06Q147.27-3.26 147.40-3.33ZM155.52-0.60L155.52-0.60Q155.41-0.54 155.29-0.51Q155.18-0.47 155.06-0.47L155.06-0.47Q154.86-0.47 154.75-0.58Q154.65-0.70 154.65-0.88L154.65-0.88Q154.65-1.04 154.70-1.26Q154.75-1.49 154.83-1.76Q154.91-2.03 155.01-2.33Q155.10-2.63 155.19-2.92Q155.29-3.21 155.36-3.47Q155.44-3.74 155.48-3.95L155.48-3.95Q155.31-3.93 155.15-3.91Q154.99-3.88 154.82-3.88L154.82-3.88Q154.71-3.88 154.59-3.91Q154.47-3.94 154.38-4.01Q154.29-4.07 154.23-4.17Q154.17-4.27 154.17-4.40L154.17-4.40Q154.17-4.57 154.29-4.73Q154.41-4.90 154.54-5.00L154.54-5.00Q154.65-5.08 154.81-5.12Q154.97-5.17 155.14-5.19Q155.32-5.21 155.49-5.22Q155.66-5.23 155.80-5.24L155.80-5.24Q155.92-5.56 155.99-5.89Q156.06-6.23 156.12-6.57Q156.18-6.90 156.24-7.24Q156.30-7.58 156.40-7.90L156.40-7.90Q156.53-8.30 156.96-8.30L156.96-8.30Q157.10-8.30 157.27-8.24Q157.44-8.17 157.58-8.06Q157.72-7.95 157.81-7.81Q157.90-7.66 157.90-7.51L157.90-7.51Q157.90-7.30 157.82-6.99Q157.73-6.67 157.62-6.35Q157.52-6.04 157.44-5.76Q157.35-5.48 157.37-5.35L157.37-5.35L157.48-5.35Q157.67-5.35 157.90-5.37Q158.13-5.38 158.35-5.41Q158.57-5.43 158.75-5.45Q158.94-5.47 159.02-5.47L159.02-5.47Q159.12-5.48 159.23-5.48Q159.33-5.48 159.43-5.51L159.43-5.51Q159.46-5.60 159.47-5.67Q159.49-5.75 159.50-5.84L159.50-5.84Q159.71-6.63 159.95-7.40Q160.18-8.18 160.41-8.96L160.41-8.96Q160.45-9.12 160.50-9.29Q160.55-9.46 160.63-9.59Q160.71-9.72 160.83-9.81Q160.96-9.89 161.17-9.89L161.17-9.89Q161.29-9.89 161.43-9.82Q161.58-9.76 161.70-9.65Q161.83-9.54 161.92-9.42Q162.01-9.29 162.01-9.16L162.01-9.16Q162.01-9.03 161.92-8.69Q161.84-8.36 161.70-7.87Q161.56-7.39 161.37-6.79Q161.19-6.20 160.97-5.55Q160.76-4.91 160.54-4.25Q160.31-3.59 160.10-2.96Q159.88-2.34 159.69-1.80Q159.50-1.25 159.35-0.85Q159.21-0.44 159.12-0.20Q159.03 0.04 159.02 0.05L159.02 0.05Q158.95 0.12 158.85 0.19Q158.75 0.26 158.63 0.32Q158.52 0.38 158.40 0.42Q158.29 0.45 158.19 0.45L158.19 0.45Q158.00 0.45 157.88 0.33Q157.76 0.22 157.80 0.05L157.80 0.05Q157.97-0.54 158.12-1.10Q158.28-1.65 158.43-2.18Q158.58-2.72 158.74-3.25Q158.89-3.77 159.06-4.32L159.06-4.32Q158.88-4.29 158.59-4.28Q158.30-4.26 158.00-4.24Q157.71-4.21 157.43-4.18Q157.16-4.14 157.00-4.08L157.00-4.08Q156.97-4.05 156.96-4.03Q156.96-4.00 156.94-3.96L156.94-3.96Q156.88-3.73 156.81-3.42Q156.74-3.11 156.66-2.77Q156.57-2.43 156.47-2.09Q156.36-1.75 156.22-1.45Q156.08-1.15 155.91-0.92Q155.74-0.70 155.52-0.60ZM169.61-8.60L169.61-8.60Q169.76-8.60 169.92-8.54Q170.07-8.48 170.19-8.37Q170.31-8.26 170.39-8.12Q170.47-7.97 170.44-7.55Q170.42-7.13 170.48-6.38Q170.54-5.64 170.81-4.27Q171.08-2.89 171.40-1.73L171.40-1.73Q172.03-3.88 172.43-5.38Q172.83-6.88 173.21-8.39L173.21-8.39Q173.28-8.63 173.33-8.86Q173.38-9.09 173.47-9.31L173.47-9.31Q173.51-9.39 173.55-9.47Q173.59-9.55 173.67-9.60L173.67-9.60L173.69-9.62Q173.75-9.66 173.82-9.67Q173.89-9.67 173.96-9.67L173.96-9.67L174.01-9.67Q174.23-9.54 174.29-9.23Q174.35-8.91 174.19-7.55Q174.03-6.19 173.53-4.25Q173.03-2.31 172.52-0.36L172.52-0.36Q172.44-0.04 172.23 0.18Q172.01 0.39 171.72 0.39L171.72 0.39Q171.50 0.39 171.24 0.23Q170.99 0.08 170.72-0.30L170.72-0.30Q170.68-0.37 170.66-0.45Q170.64-0.54 170.62-0.62L170.62-0.62Q170.38-1.65 170.16-2.70Q169.94-3.74 169.64-4.77L169.64-4.77Q169.38-3.83 169.13-2.89Q168.88-1.96 168.63-1.02L168.63-1.02Q168.62-0.97 168.58-0.89Q168.55-0.81 168.51-0.73Q168.46-0.64 168.42-0.57Q168.38-0.50 168.33-0.47L168.33-0.47Q168.09-0.18 167.80-0.32Q167.52-0.46 167.69-1.71Q167.86-2.96 168.12-4.29Q168.39-5.62 168.69-6.96L168.69-6.96Q168.71-7.10 168.74-7.27Q168.76-7.45 168.78-7.62Q168.81-7.79 168.85-7.95Q168.88-8.12 168.95-8.24L168.95-8.24Q169.05-8.43 169.22-8.51Q169.40-8.60 169.61-8.60ZM182.00-0.19L182.00-0.19Q181.18-0.32 180.73-1.23Q180.29-2.14 180.34-3.26Q180.39-4.38 180.66-4.86L180.66-4.86Q180.57-5.21 180.65-5.94Q180.73-6.67 181.50-7.52Q182.27-8.38 183.70-8.48L183.70-8.48Q184.83-8.40 185.23-8.06L185.23-8.06Q185.74-7.74 186.05-7.22Q186.36-6.71 186.48-6.08Q186.60-5.46 186.55-4.76Q186.50-4.07 186.29-3.39Q186.08-2.72 185.71-2.10Q185.34-1.49 184.84-1.02Q184.34-0.55 183.55-0.28Q182.77-0.01 182.00-0.19ZM181.86-5.54L181.86-5.54Q181.86-5.39 181.94-5.19Q182.01-4.99 182.13-4.80Q182.25-4.62 182.41-4.50Q182.57-4.37 182.74-4.37L182.74-4.37Q182.87-4.37 182.96-4.42Q183.06-4.46 183.15-4.46L183.15-4.46Q183.21-4.46 183.27-4.42Q183.32-4.38 183.38-4.27L183.38-4.27Q183.50-4.04 183.43-3.88Q183.36-3.73 183.18-3.62Q183.01-3.52 182.75-3.47Q182.50-3.43 182.23-3.43L182.23-3.43Q181.97-3.43 181.72-3.50Q181.48-3.58 181.27-3.71L181.27-3.71Q181.22-3.52 181.19-3.25Q181.16-2.98 181.17-2.70Q181.18-2.41 181.24-2.14Q181.30-1.87 181.42-1.66Q181.55-1.44 181.74-1.31Q181.94-1.18 182.23-1.18L182.23-1.18Q182.45-1.18 182.66-1.23Q182.88-1.29 183.08-1.39Q183.28-1.48 183.46-1.61Q183.64-1.74 183.81-1.88L183.81-1.88Q184.10-2.13 184.34-2.50Q184.58-2.87 184.77-3.29Q184.95-3.72 185.07-4.18Q185.18-4.65 185.21-5.09Q185.24-5.54 185.17-5.94Q185.09-6.34 184.90-6.64Q184.72-6.94 184.40-7.12Q184.09-7.30 183.63-7.30L183.63-7.30Q183.26-7.30 182.94-7.16Q182.62-7.03 182.38-6.79Q182.14-6.54 182.00-6.22Q181.86-5.90 181.86-5.54ZM193.76 0.41L193.76 0.41Q193.64 0.41 193.49 0.38Q193.35 0.35 193.22 0.28Q193.09 0.21 193.00 0.10Q192.91-0.01 192.91-0.16L192.91-0.16Q192.91-0.23 192.94-0.29Q192.97-0.35 193.02-0.40Q193.07-0.45 193.12-0.50Q193.17-0.54 193.22-0.59L193.22-0.59Q193.32-0.69 193.38-0.82Q193.45-0.96 193.49-1.09L193.49-1.09Q193.78-1.90 194.02-2.74Q194.27-3.57 194.50-4.42Q194.73-5.26 194.94-6.11Q195.16-6.96 195.38-7.79L195.38-7.79Q195.41-7.92 195.43-8.09Q195.46-8.26 195.50-8.40Q195.54-8.54 195.61-8.64Q195.69-8.74 195.81-8.74L195.81-8.74Q195.86-8.74 195.96-8.71L195.96-8.71Q196.15-8.64 196.32-8.57Q196.49-8.49 196.63-8.40Q196.76-8.31 196.85-8.20Q196.93-8.10 196.93-7.98L196.93-7.98Q196.93-7.91 196.90-7.80Q196.88-7.69 196.85-7.56Q196.81-7.44 196.78-7.33Q196.74-7.21 196.72-7.14L196.72-7.14Q196.58-6.67 196.42-6.13Q196.25-5.59 196.09-5.02Q195.93-4.46 195.76-3.89Q195.59-3.33 195.44-2.80Q195.29-2.27 195.15-1.81Q195.01-1.35 194.91-0.99L194.91-0.99Q195.37-0.99 195.83-1.04Q196.28-1.08 196.74-1.15Q197.20-1.22 197.66-1.29Q198.13-1.35 198.08-0.79Q198.02-0.23 197.69-0.16Q197.36-0.09 196.97-0.03Q196.59 0.04 196.19 0.11Q195.80 0.17 195.42 0.23Q195.04 0.28 194.71 0.32Q194.38 0.36 194.14 0.39Q193.89 0.41 193.76 0.41ZM205.59-0.19L205.59-0.19Q204.76-0.32 204.32-1.23Q203.87-2.14 203.92-3.26Q203.98-4.38 204.24-4.86L204.24-4.86Q204.16-5.21 204.24-5.94Q204.32-6.67 205.09-7.52Q205.86-8.38 207.29-8.48L207.29-8.48Q208.42-8.40 208.82-8.06L208.82-8.06Q209.33-7.74 209.63-7.22Q209.94-6.71 210.06-6.08Q210.19-5.46 210.14-4.76Q210.09-4.07 209.87-3.39Q209.66-2.72 209.29-2.10Q208.93-1.49 208.43-1.02Q207.93-0.55 207.14-0.28Q206.35-0.01 205.59-0.19ZM205.45-5.54L205.45-5.54Q205.45-5.39 205.52-5.19Q205.59-4.99 205.71-4.80Q205.83-4.62 205.99-4.50Q206.15-4.37 206.33-4.37L206.33-4.37Q206.45-4.37 206.55-4.42Q206.65-4.46 206.74-4.46L206.74-4.46Q206.79-4.46 206.85-4.42Q206.91-4.38 206.96-4.27L206.96-4.27Q207.08-4.04 207.01-3.88Q206.95-3.73 206.77-3.62Q206.59-3.52 206.33-3.47Q206.08-3.43 205.81-3.43L205.81-3.43Q205.55-3.43 205.31-3.50Q205.06-3.58 204.85-3.71L204.85-3.71Q204.80-3.52 204.77-3.25Q204.74-2.98 204.76-2.70Q204.77-2.41 204.83-2.14Q204.88-1.87 205.01-1.66Q205.13-1.44 205.33-1.31Q205.52-1.18 205.81-1.18L205.81-1.18Q206.03-1.18 206.25-1.23Q206.46-1.29 206.66-1.39Q206.86-1.48 207.04-1.61Q207.23-1.74 207.39-1.88L207.39-1.88Q207.68-2.13 207.92-2.50Q208.17-2.87 208.35-3.29Q208.54-3.72 208.65-4.18Q208.76-4.65 208.79-5.09Q208.82-5.54 208.75-5.94Q208.68-6.34 208.49-6.64Q208.30-6.94 207.99-7.12Q207.67-7.30 207.22-7.30L207.22-7.30Q206.85-7.30 206.53-7.16Q206.20-7.03 205.96-6.79Q205.72-6.54 205.58-6.22Q205.45-5.90 205.45-5.54ZM219.83-3.87L219.83-3.87Q220.05-3.91 220.31-3.93Q220.58-3.96 220.84-3.97Q221.11-3.99 221.36-4.00Q221.61-4.01 221.82-4.01Q222.02-4.02 222.15-4.02Q222.28-4.03 222.29-4.03L222.29-4.03Q222.66-4.03 222.86-3.85Q223.07-3.68 223.12-3.40Q223.17-3.11 223.07-2.75Q222.97-2.39 222.74-2.01Q222.50-1.63 222.14-1.27Q221.78-0.91 221.30-0.63Q220.82-0.35 220.23-0.17Q219.64 0 218.95 0L218.95 0Q218.37 0 217.92-0.18Q217.46-0.35 217.15-0.68Q216.83-1.01 216.67-1.48Q216.50-1.95 216.50-2.53L216.50-2.53Q216.50-3.21 216.70-3.94Q216.91-4.68 217.27-5.38Q217.64-6.08 218.15-6.72Q218.65-7.35 219.26-7.83Q219.86-8.31 220.54-8.59Q221.22-8.87 221.94-8.87L221.94-8.87Q222.25-8.87 222.53-8.78Q222.81-8.70 223.03-8.52Q223.25-8.35 223.38-8.09Q223.51-7.84 223.51-7.51L223.51-7.51Q223.51-7.27 223.44-7.00Q223.38-6.74 223.26-6.48Q223.14-6.22 222.98-5.99Q222.81-5.75 222.61-5.57Q222.40-5.38 222.17-5.28Q221.94-5.17 221.68-5.17L221.68-5.17L221.62-5.17Q221.50-5.17 221.32-5.21Q221.13-5.25 220.97-5.37Q220.80-5.48 220.71-5.71Q220.61-5.94 220.67-6.31L220.67-6.31Q220.68-6.38 220.80-6.48Q220.93-6.58 221.10-6.70Q221.27-6.82 221.45-6.95Q221.63-7.07 221.76-7.19Q221.89-7.31 221.93-7.41Q221.97-7.51 221.85-7.56L221.85-7.56Q221.65-7.65 221.46-7.65L221.46-7.65Q221.16-7.65 220.85-7.49Q220.54-7.33 220.23-7.06Q219.93-6.79 219.64-6.42Q219.35-6.06 219.10-5.65Q218.84-5.24 218.63-4.80Q218.42-4.36 218.27-3.94Q218.12-3.52 218.03-3.14Q217.95-2.76 217.95-2.46L217.95-2.46Q217.95-2.12 218.06-1.88Q218.17-1.64 218.36-1.49Q218.55-1.33 218.81-1.26Q219.06-1.19 219.34-1.19L219.34-1.19Q219.72-1.19 220.11-1.31Q220.50-1.42 220.82-1.63Q221.14-1.84 221.35-2.12Q221.55-2.41 221.56-2.74L221.56-2.74Q221.55-2.74 221.47-2.73Q221.38-2.72 221.28-2.72Q221.17-2.71 221.08-2.70Q220.99-2.69 220.96-2.69L220.96-2.69Q220.73-2.67 220.58-2.64Q220.44-2.61 220.30-2.59Q220.17-2.57 220.02-2.55Q219.87-2.54 219.63-2.54L219.63-2.54Q219.39-2.54 219.29-2.67Q219.18-2.81 219.18-2.99Q219.17-3.18 219.24-3.37Q219.32-3.56 219.43-3.69L219.43-3.69Q219.52-3.78 219.62-3.81Q219.71-3.85 219.83-3.87ZM230.71-0.42L230.71-0.42Q230.67-0.33 230.58-0.25Q230.48-0.18 230.37-0.12Q230.26-0.06 230.14-0.03Q230.03 0 229.94 0L229.94 0Q229.85-0.39 230.12-1.52Q230.39-2.65 230.70-3.95Q231.02-5.25 231.39-6.51L231.39-6.51Q231.43-6.67 231.48-6.81Q231.53-6.96 231.56-7.13L231.56-7.13Q231.43-7.08 231.39-7.10Q231.34-7.11 231.16-7.15Q230.97-7.18 230.86-7.51Q230.75-7.85 230.93-7.93Q231.11-8.01 231.31-8.10Q231.51-8.19 231.70-8.27Q231.89-8.36 232.32-8.53Q232.75-8.71 232.79-8.73L232.79-8.73Q232.85-8.75 232.89-8.75Q232.94-8.75 232.99-8.75L232.99-8.75Q233.08-8.75 233.20-8.71Q233.32-8.67 233.43-8.59Q233.53-8.52 233.61-8.43Q233.69-8.33 233.65-8.20Q233.61-8.07 233.32-7.90Q233.02-7.72 233.00-7.65L233.00-7.65Q232.62-6.42 232.24-5.21Q231.87-4.01 231.49-2.78L231.49-2.78Q230.84-0.76 230.80-0.64Q230.76-0.53 230.71-0.42ZM240.62-4.83Q240.97-5.85 241.10-6.29Q241.24-6.74 241.34-7.16L241.34-7.16Q240.89-7.14 240.44-7.09Q239.99-7.05 239.54-7.05L239.54-7.05Q239.44-7.05 239.33-7.08Q239.21-7.11 239.12-7.16Q239.03-7.22 238.98-7.31Q238.93-7.39 238.96-7.51L238.96-7.51Q239.00-7.72 239.29-7.87Q239.57-8.03 240.01-8.14Q240.46-8.26 241.02-8.33Q241.59-8.41 242.19-8.46Q242.80-8.50 243.41-8.53Q244.03-8.55 244.56-8.57Q245.10-8.58 245.53-8.59Q245.96-8.60 246.19-8.60L246.19-8.60Q246.26-8.60 246.35-8.60Q246.44-8.60 246.54-8.58Q246.63-8.57 246.72-8.54Q246.80-8.52 246.86-8.48L246.86-8.48Q246.95-8.40 246.95-8.29L246.95-8.29Q246.95-8.19 246.92-8.09Q246.88-7.99 246.84-7.91L246.84-7.91Q246.77-7.77 246.65-7.69Q246.53-7.61 246.39-7.56Q246.25-7.52 246.10-7.50Q245.95-7.48 245.81-7.48L245.81-7.48Q245.13-7.45 244.45-7.41Q243.76-7.37 243.09-7.29L243.09-7.29Q243.03-7.28 242.96-7.27Q242.90-7.26 242.86-7.21L242.86-7.21Q242.78-7.00 242.71-6.78Q242.64-6.56 242.57-6.35L242.57-6.35Q242.54-6.28 242.50-6.17Q242.46-6.05 242.41-5.93Q242.36-5.80 242.33-5.68Q242.29-5.56 242.29-5.48L242.29-5.48Q242.67-5.48 243.06-5.50Q243.45-5.51 243.83-5.51L243.83-5.51Q244.05-5.51 244.17-5.45Q244.29-5.38 244.34-5.29Q244.39-5.19 244.38-5.06Q244.37-4.94 244.32-4.83Q244.27-4.71 244.19-4.62Q244.11-4.52 244.01-4.48L244.01-4.48Q243.88-4.42 243.73-4.40L243.73-4.40Q243.27-4.35 242.81-4.32Q242.34-4.29 241.83-4.23L241.83-4.23Q241.80-4.17 241.73-4.01Q241.67-3.86 241.60-3.65Q241.52-3.44 241.44-3.20Q241.36-2.95 241.29-2.71Q241.22-2.46 241.17-2.23Q241.11-2.00 241.09-1.83Q241.06-1.65 241.07-1.54Q241.08-1.44 241.15-1.44L241.15-1.44Q241.32-1.44 241.49-1.46Q241.65-1.48 241.82-1.49L241.82-1.49Q242.44-1.56 243.09-1.63Q243.74-1.71 244.37-1.71L244.37-1.71Q244.62-1.71 244.76-1.65Q244.91-1.59 244.97-1.49Q245.04-1.40 245.03-1.28Q245.02-1.17 244.97-1.05Q244.91-0.94 244.81-0.84Q244.72-0.74 244.60-0.69L244.60-0.69Q244.48-0.63 244.34-0.61Q244.20-0.59 244.06-0.57L244.06-0.57Q243.21-0.47 242.36-0.35Q241.52-0.22 240.66-0.11L240.66-0.11Q240.53-0.08 240.43-0.08L240.43-0.08Q240.16-0.08 240.02-0.24Q239.87-0.41 239.81-0.68Q239.75-0.94 239.76-1.27Q239.77-1.59 239.81-1.91Q239.85-2.22 239.91-2.49Q239.97-2.75 240.01-2.90L240.01-2.90Q240.09-3.21 240.18-3.51Q240.28-3.81 240.62-4.83ZM256.20-4.84L256.20-4.84Q255.99-4.92 255.77-4.97Q255.56-5.02 255.34-5.08L255.34-5.08Q255.04-5.16 254.68-5.31Q254.33-5.46 254.02-5.67Q253.72-5.88 253.51-6.17Q253.31-6.46 253.31-6.83L253.31-6.83Q253.31-7.17 253.47-7.43Q253.63-7.70 253.90-7.90Q254.16-8.11 254.50-8.25Q254.84-8.40 255.20-8.49Q255.55-8.58 255.88-8.62Q256.22-8.67 256.48-8.67L256.48-8.67L256.64-8.67Q256.82-8.67 257.04-8.65Q257.26-8.63 257.49-8.58Q257.72-8.53 257.94-8.44Q258.16-8.36 258.34-8.23Q258.52-8.10 258.62-7.93Q258.73-7.75 258.73-7.52L258.73-7.52Q258.73-7.32 258.64-7.13Q258.55-6.94 258.41-6.78Q258.28-6.62 258.11-6.48Q257.94-6.35 257.78-6.24L257.78-6.24Q257.63-6.13 257.47-6.03Q257.30-5.93 257.11-5.93L257.11-5.93Q256.99-5.93 256.91-5.97Q256.83-6.01 256.78-6.08Q256.72-6.14 256.68-6.23Q256.65-6.31 256.61-6.40L256.61-6.40Q256.59-6.47 256.57-6.51Q256.55-6.56 256.55-6.63L256.55-6.63Q256.55-6.70 256.66-6.77Q256.78-6.84 256.95-6.92Q257.12-7.00 257.31-7.09Q257.50-7.18 257.64-7.28Q257.78-7.39 257.84-7.51Q257.91-7.63 257.82-7.73Q257.73-7.82 257.60-7.84Q257.47-7.86 257.32-7.86L257.32-7.86Q257.01-7.86 256.63-7.79Q256.25-7.72 255.89-7.62Q255.53-7.51 255.23-7.38Q254.93-7.25 254.79-7.13L254.79-7.13Q254.74-7.08 254.66-7.00Q254.59-6.91 254.59-6.83L254.59-6.83Q254.59-6.71 254.71-6.60Q254.83-6.49 254.99-6.40Q255.16-6.32 255.33-6.25Q255.50-6.19 255.59-6.16L255.59-6.16Q255.80-6.09 256.02-6.04Q256.23-5.98 256.44-5.92Q256.65-5.86 256.86-5.79Q257.07-5.72 257.27-5.62L257.27-5.62Q257.62-5.45 257.94-5.23Q258.26-5.00 258.51-4.72Q258.75-4.44 258.90-4.09Q259.04-3.74 259.04-3.32L259.04-3.32Q259.04-2.80 258.81-2.24Q258.58-1.69 258.16-1.16Q257.73-0.63 257.14-0.15Q256.55 0.32 255.83 0.68Q255.11 1.04 254.28 1.25Q253.45 1.45 252.56 1.45L252.56 1.45Q252.46 1.45 252.37 1.45Q252.28 1.45 252.19 1.44L252.19 1.44Q251.45 1.41 250.88 1.11Q250.31 0.82 249.93 0.37Q249.56-0.09 249.41-0.65Q249.25-1.22 249.35-1.81Q249.45-2.40 249.82-2.96Q250.20-3.53 250.87-3.97L250.87-3.97Q251.16-4.17 251.54-4.30Q251.92-4.44 252.34-4.53Q252.75-4.62 253.16-4.67Q253.58-4.71 253.92-4.71L253.92-4.71Q254.18-4.71 254.48-4.69Q254.78-4.67 255.08-4.61Q255.38-4.54 255.63-4.42Q255.89-4.30 256.07-4.11L256.07-4.11Q256.13-4.04 256.19-3.95Q256.25-3.86 256.25-3.76L256.25-3.76Q256.25-3.69 256.21-3.64Q256.17-3.60 256.12-3.57Q256.06-3.53 255.99-3.52Q255.93-3.51 255.87-3.51L255.87-3.51Q255.60-3.51 255.32-3.60Q255.05-3.69 254.79-3.76L254.79-3.76Q254.40-3.86 253.99-3.86L253.99-3.86Q253.57-3.86 253.20-3.72Q252.82-3.58 252.54-3.33Q252.26-3.07 252.10-2.71Q251.94-2.36 251.94-1.92L251.94-1.92Q251.94-1.72 251.96-1.55Q251.99-1.38 252.07-1.25Q252.15-1.11 252.27-1.01Q252.40-0.91 252.60-0.83L252.60-0.83Q252.81-0.74 253.03-0.71Q253.24-0.69 253.47-0.69L253.47-0.69Q253.81-0.69 254.26-0.77Q254.71-0.86 255.19-1.02Q255.67-1.18 256.13-1.42Q256.59-1.65 256.96-1.95Q257.32-2.24 257.54-2.60Q257.77-2.95 257.77-3.35L257.77-3.35Q257.77-3.65 257.61-3.89Q257.46-4.13 257.23-4.31Q257.00-4.49 256.72-4.63Q256.45-4.76 256.20-4.84Z" transform="translate(-0.049733231707317076, 9.890625)"></path></g></g></g></g></mask><defs v-gra="od"></defs></g></svg>